<?xml version="1.0" standalone="no"?>
<!DOCTYPE svg PUBLIC "-//W3C//DTD SVG 20010904//EN"
 "http://www.w3.org/TR/2001/REC-SVG-20010904/DTD/svg10.dtd">
<svg version="1.0" xmlns="http://www.w3.org/2000/svg"
 width="1080.000000pt" height="748.000000pt" viewBox="0 0 1080.000000 748.000000"
 preserveAspectRatio="xMidYMid meet">

<g transform="translate(0.000000,748.000000) scale(0.100000,-0.100000)"
fill="#000000" stroke="none">
<path d="M0 6555 c0 -509 1 -925 3 -925 1 0 52 24 112 54 61 30 155 70 210 91
l100 37 55 85 c66 103 170 204 292 284 439 288 1100 328 1588 96 47 -23 91
-41 97 -40 7 0 11 -3 8 -7 -3 -4 2 -11 11 -14 44 -17 140 -91 234 -181 102
-98 107 -101 170 -114 68 -13 134 -41 235 -101 120 -72 220 -100 354 -100 100
0 202 27 334 89 59 28 143 62 189 77 75 25 97 28 228 28 98 0 160 -4 190 -14
25 -8 48 -14 51 -15 4 0 30 34 58 77 173 258 528 418 930 418 356 0 650 -107
848 -307 92 -94 137 -166 172 -275 11 -32 19 -40 67 -57 163 -61 418 -49 588
29 23 10 79 36 126 58 47 21 94 42 106 46 16 5 20 12 16 31 -3 20 3 28 32 46
41 24 42 27 19 46 -12 10 -13 13 -4 11 8 -3 19 -12 25 -22 9 -13 7 -19 -5 -26
-42 -24 -64 -49 -53 -60 16 -16 64 -2 64 19 0 10 15 25 35 34 19 9 35 21 35
26 0 5 -16 16 -35 25 -21 10 -35 24 -35 35 0 20 41 46 62 38 8 -3 2 -7 -14
-12 -40 -11 -41 -31 -2 -54 43 -26 43 -42 -1 -65 -19 -11 -35 -23 -35 -28 0
-12 38 -10 45 2 4 6 11 8 16 5 5 -4 9 -2 9 3 0 4 16 16 36 25 39 19 37 30 -7
52 -16 9 -29 22 -29 30 0 17 57 59 64 46 3 -5 -5 -12 -18 -15 -39 -10 -39 -33
0 -56 18 -12 34 -25 34 -28 0 -4 -14 -19 -32 -34 l-33 -27 27 -1 c25 0 108 46
108 61 0 4 -16 14 -35 23 -19 9 -35 23 -35 30 0 17 32 46 51 46 8 0 1 -10 -15
-23 l-29 -24 36 -22 c45 -28 46 -40 4 -65 l-32 -20 67 -7 c75 -8 164 -32 219
-59 l37 -17 43 59 c51 70 123 142 204 203 102 76 305 181 257 133 -20 -20 -13
-32 8 -13 10 9 18 22 17 27 -3 14 106 54 222 83 615 153 1293 -53 1570 -477
22 -34 51 -87 63 -117 l23 -53 55 5 c65 7 193 43 308 87 l82 32 0 559 0 559
-707 0 -708 0 105 105 105 105 602 0 603 0 0 170 0 170 -5400 0 -5400 0 0
-925z m10452 833 c7 -7 38 -13 68 -13 55 0 55 0 53 -30 l-3 -30 17 33 c22 42
39 41 51 -5 l10 -38 1 38 c1 35 2 37 36 37 34 0 35 -1 37 -42 l1 -43 4 43 c6
64 23 51 23 -18 0 -33 -4 -60 -10 -60 -5 0 -10 5 -10 11 0 8 -5 8 -15 -1 -13
-11 -15 -5 -16 46 0 33 -3 52 -6 44 -3 -8 -11 -18 -17 -22 -8 -6 -7 -11 2 -17
8 -4 12 -19 10 -32 -2 -20 -9 -24 -35 -24 -18 -1 -33 3 -33 8 0 5 -6 4 -13 -2
-8 -6 -42 -10 -76 -9 l-62 2 3 32 c1 18 -1 36 -5 40 -4 4 -8 -15 -8 -42 -1
-27 -3 -41 -6 -32 -4 16 -6 16 -19 3 -9 -8 -29 -15 -45 -15 -29 0 -39 13 -19
25 6 4 4 12 -5 21 -30 30 -7 84 36 84 10 0 19 5 19 10 0 14 16 13 32 -2z
m-214 -75 l3 -31 -80 -4 -81 -3 0 36 0 36 78 -1 77 -1 3 -32z m87 20 c7 -9 10
-24 7 -32 -4 -12 -7 -11 -13 5 -7 17 -8 16 -9 -6 l-2 -25 -8 25 c-8 24 -8 24
-9 3 -2 -40 -31 -28 -31 12 0 31 3 35 26 35 15 0 32 -8 39 -17z m-9094 -13
c29 -16 23 -43 -16 -64 -49 -26 -155 -132 -155 -154 0 -13 15 -23 55 -36 80
-25 95 -65 50 -126 -60 -82 -169 -93 -150 -17 10 37 95 119 95 91 0 -3 -14
-25 -30 -49 -34 -49 -26 -66 14 -34 32 25 57 71 48 86 -4 6 -27 16 -52 23
-113 30 -108 90 16 214 48 48 79 71 102 75 2 1 12 -4 23 -9z m-604 -51 c38
-14 101 -77 120 -119 8 -19 16 -60 16 -91 1 -172 -176 -279 -331 -200 -153 79
-159 293 -11 393 36 24 52 28 110 28 37 0 80 -5 96 -11z m962 2 c12 -7 8 -16
-16 -48 -29 -36 -53 -76 -53 -86 0 -3 9 -3 20 0 11 3 20 9 20 14 0 5 11 9 25
9 17 0 25 -5 25 -18 0 -12 -17 -22 -61 -37 l-62 -19 -37 -81 c-21 -44 -42 -93
-49 -108 -12 -30 -34 -32 -39 -4 -2 9 8 42 22 73 22 48 23 55 8 49 -53 -22
-74 -26 -90 -20 -9 4 -31 7 -49 6 -25 -2 -33 2 -38 20 -15 45 97 116 121 77 4
-6 3 -13 -3 -15 -6 -2 -19 -11 -29 -19 -18 -14 -18 -14 4 -4 26 13 57 6 47
-10 -4 -6 10 -4 31 5 45 19 53 25 31 25 -11 0 -17 8 -17 24 0 19 6 25 27 28
15 2 32 12 38 23 5 12 25 44 44 73 32 51 51 61 80 43z m5505 -24 l70 -33 44
23 c25 13 56 23 69 23 68 0 143 -66 143 -126 0 -32 4 -37 47 -56 40 -18 48
-18 57 -6 20 26 45 28 66 5 36 -38 36 -63 0 -103 -27 -32 -31 -41 -24 -68 4
-17 8 -65 8 -106 1 -41 5 -81 9 -88 5 -7 2 -25 -7 -43 -14 -28 -14 -33 1 -56
13 -20 14 -31 6 -54 l-11 -29 46 -1 c37 0 43 -2 27 -10 -14 -6 -8 -7 22 -3 67
9 182 -32 204 -72 10 -19 10 -37 1 -84 -29 -157 -168 -247 -366 -238 -77 4
-100 9 -152 36 -101 51 -151 122 -161 226 -5 61 -5 63 23 83 39 28 125 52 209
60 l70 6 2 41 c1 22 2 71 2 108 1 37 6 70 11 73 6 3 10 48 10 98 0 115 -18
158 -71 171 -31 8 -41 5 -80 -24 -40 -29 -49 -31 -102 -28 -46 4 -63 10 -87
33 -17 16 -35 46 -41 66 -10 33 -16 37 -63 48 -99 22 -126 32 -126 46 0 25 19
26 86 5 81 -25 107 -26 102 -4 -2 10 -33 30 -75 48 -51 22 -73 36 -73 49 0 25
25 21 104 -16z m-3959 13 c3 -6 -17 -52 -44 -104 -54 -99 -64 -131 -33 -104
29 26 83 50 99 44 12 -5 14 -15 8 -42 l-6 -36 32 19 c18 10 39 30 48 45 10 17
25 28 39 28 27 0 29 -21 5 -57 -17 -26 -17 -26 5 -14 13 7 28 23 34 36 14 30
31 37 53 21 17 -12 16 -16 -9 -58 -14 -25 -26 -53 -26 -62 0 -26 -34 -15 -38
11 l-3 23 -31 -23 -30 -22 -18 22 c-18 22 -18 22 -36 2 -11 -12 -28 -19 -43
-17 -21 2 -27 10 -31 38 l-5 35 -57 -54 c-59 -55 -88 -62 -88 -21 0 30 141
300 156 300 7 0 16 -5 19 -10z m-2295 -215 c0 -202 0 -205 -21 -205 -20 0 -21
3 -14 74 5 55 2 87 -10 131 -12 40 -15 73 -11 109 7 52 28 96 46 96 6 0 10
-78 10 -205z m9280 200 c0 -3 -6 -14 -12 -25 -11 -17 -10 -22 2 -30 12 -8 13
-11 2 -22 -11 -11 -16 -9 -28 6 -17 24 -18 48 -2 64 12 12 38 17 38 7z m-9822
-79 c2 -39 -2 -74 -8 -80 -6 -6 -10 -59 -10 -128 0 -110 -1 -118 -19 -118 -27
0 -29 11 -23 128 4 86 2 105 -12 121 -14 15 -16 30 -10 85 l7 67 36 -3 36 -3
3 -69z m9963 41 c0 -12 3 -16 6 -9 2 6 9 12 15 12 6 0 6 -6 -2 -15 -7 -9 -28
-14 -56 -13 -39 0 -44 3 -44 24 0 17 6 24 20 24 13 0 20 -7 20 -20 0 -11 5
-20 11 -20 6 0 8 7 5 16 -3 9 -3 20 0 25 9 15 24 0 25 -24z m118 14 c6 -10 10
-9 14 4 5 13 11 14 27 5 14 -8 20 -8 20 0 0 7 6 7 21 0 15 -9 24 -8 35 0 11
10 16 8 23 -11 6 -16 10 -18 10 -8 1 23 30 33 38 13 5 -13 7 -14 14 -2 5 9 26
13 66 13 54 -1 58 -3 58 -25 0 -32 -23 -37 -35 -8 l-9 23 -7 -22 c-3 -13 -11
-23 -16 -23 -5 0 -6 9 -3 20 4 11 2 20 -4 20 -6 0 -11 -7 -11 -15 0 -21 -30
-31 -41 -14 -5 8 -9 9 -9 3 0 -6 -25 -11 -65 -11 -36 0 -65 5 -65 10 0 5 -7 4
-15 -3 -12 -10 -18 -10 -30 0 -10 9 -15 9 -15 1 0 -20 -30 -11 -40 12 l-9 22
-7 -22 c-9 -32 -21 -28 -21 6 0 27 3 29 34 27 19 -1 38 -8 42 -15z m376 -1 c8
-24 -1 -40 -21 -40 -8 0 -14 10 -14 23 0 40 24 51 35 17z m-592 -6 c11 -11 -3
-24 -18 -18 -8 4 -12 10 -9 15 6 11 18 12 27 3z m-8269 -70 c24 -9 19 -39 -7
-53 -13 -7 -31 -26 -41 -42 l-17 -29 36 0 c51 0 41 -21 -21 -41 -48 -15 -50
-17 -86 -100 -21 -46 -38 -96 -38 -111 0 -32 -15 -44 -35 -28 -23 19 -18 55
19 140 23 53 30 82 24 88 -15 15 -2 42 19 42 11 0 26 16 38 42 25 52 62 98 80
98 7 0 20 -3 29 -6z m1574 -17 c8 -10 8 -19 -2 -33 -31 -47 -25 -56 14 -20 22
20 49 36 61 36 18 0 20 -4 13 -45 -8 -54 5 -59 44 -17 44 46 75 63 113 58 19
-3 38 -5 43 -5 4 -1 6 -17 4 -36 -2 -19 1 -37 7 -39 5 -2 0 -11 -12 -20 -12
-9 -24 -29 -28 -44 -18 -83 -186 -185 -209 -126 -20 53 21 105 120 150 45 21
73 41 77 53 5 19 4 19 -34 -1 -22 -11 -45 -18 -53 -15 -8 3 -24 -6 -37 -20
-52 -54 -89 -50 -89 11 l0 31 -46 -48 c-25 -27 -51 -46 -57 -44 -29 9 -28 34
7 110 35 78 45 87 64 64z m-1738 -8 c0 -6 -10 -19 -22 -30 -26 -20 -13 -24 28
-9 42 16 40 4 -5 -25 -22 -15 -38 -31 -36 -36 10 -15 -7 -59 -26 -70 -15 -8
-24 -5 -44 15 -24 24 -26 24 -53 9 -35 -20 -62 -12 -62 19 0 32 39 108 56 108
25 0 26 -26 3 -65 l-23 -38 52 28 c37 20 52 34 52 49 0 12 4 26 8 32 14 22 72
32 72 13z m1073 -11 c25 1 27 -2 27 -38 0 -43 -21 -55 -39 -22 -9 16 -11 16
-27 0 -10 -10 -23 -32 -28 -49 -14 -40 -40 -59 -58 -41 -9 9 -6 25 17 74 38
81 45 90 64 82 9 -4 28 -7 44 -6z m1232 2 c3 -6 17 -7 31 -4 22 6 24 4 24 -35
0 -43 -20 -57 -38 -25 -8 14 -12 14 -31 -7 -18 -20 -24 -38 -20 -65 1 -10 -24
-24 -43 -24 -13 0 -18 8 -18 31 l0 31 -36 -21 c-50 -30 -112 -38 -120 -17 -10
26 4 62 37 95 36 37 73 40 90 9 10 -19 8 -25 -17 -46 -28 -24 -28 -25 -4 -17
39 12 79 44 95 76 16 29 38 38 50 19z m-2051 -12 c-4 -7 -14 -21 -22 -30 -26
-31 5 -20 37 13 26 26 34 29 46 19 9 -7 13 -21 10 -31 -3 -11 -8 -28 -11 -39
-4 -14 -1 -20 11 -20 13 0 9 -8 -14 -29 -17 -16 -31 -34 -31 -40 0 -20 -65
-84 -105 -102 -77 -35 -117 -17 -101 46 7 26 80 78 135 96 44 14 61 27 61 45
0 12 -4 12 -24 -2 -59 -38 -101 12 -52 61 26 26 73 36 60 13z m321 -14 c-24
-37 -13 -39 24 -5 51 48 77 19 46 -51 -13 -33 10 -19 45 27 19 24 40 44 47 45
6 0 21 -12 32 -26 l20 -25 16 30 c9 18 23 31 35 31 28 0 33 -16 14 -45 -27
-42 -9 -39 28 5 24 28 40 38 52 34 21 -8 20 -20 -3 -69 -11 -22 -22 -48 -25
-57 -8 -26 -25 -22 -37 9 -6 16 -13 23 -17 17 -11 -17 -51 -36 -62 -29 -6 3
-10 13 -10 22 0 14 -4 13 -23 -5 -27 -25 -75 -29 -83 -7 -10 25 -41 0 -69 -54
-29 -58 -64 -85 -129 -103 -44 -12 -49 -11 -62 7 -31 42 21 105 116 139 43 16
66 30 71 45 8 21 8 21 -22 5 -37 -19 -79 -11 -79 14 0 25 47 72 72 72 20 0 20
-1 3 -26z m7145 -2 c0 -6 -18 -27 -132 -149 -40 -44 -65 -56 -54 -27 3 9 6 54
6 100 l0 84 90 0 c50 0 90 -3 90 -8z m-6610 -159 c0 -4 -18 -33 -41 -66 -23
-32 -40 -60 -38 -62 2 -2 17 -1 32 2 23 5 35 18 60 69 30 61 48 77 63 53 3 -6
-20 -61 -52 -122 l-58 -112 42 33 c23 18 54 34 69 35 26 2 28 0 27 -35 l-1
-38 32 20 c58 36 63 17 9 -36 -49 -47 -87 -45 -94 6 l-5 34 -54 -52 c-29 -29
-60 -52 -67 -52 -29 0 -26 47 7 105 l33 58 -25 -6 c-13 -4 -29 -7 -34 -7 -12
0 -49 -71 -86 -162 -12 -32 -29 -58 -36 -58 -18 0 -16 58 2 90 23 40 18 43
-29 16 -37 -22 -46 -23 -62 -12 -16 12 -17 18 -6 54 7 22 21 51 31 64 18 21
21 22 37 6 16 -15 15 -18 -5 -47 -26 -36 -23 -38 29 -11 48 25 57 38 34 54
-23 17 -11 46 19 46 18 0 30 12 51 50 15 27 39 63 52 80 21 24 29 28 45 20 10
-6 19 -14 19 -17z m-215 -123 c0 -19 -35 -26 -46 -9 -4 7 -5 17 -2 22 8 14 48
3 48 -13z m1793 3 c-2 -10 -13 -19 -26 -21 -17 -3 -22 2 -22 17 0 16 6 21 26
21 19 0 25 -5 22 -17z m-2052 -38 c-2 -11 -7 -35 -11 -54 l-7 -34 32 37 c26
30 35 34 47 24 9 -7 12 -21 8 -35 -5 -21 -3 -23 13 -14 10 5 27 26 37 45 24
43 35 46 35 8 0 -35 -51 -108 -87 -125 -22 -10 -28 -8 -42 10 -17 21 -17 21
-44 1 -54 -39 -69 -4 -45 104 15 69 24 81 49 65 12 -8 18 -19 15 -32z m1858
29 c18 -7 21 -40 6 -80 -6 -15 -8 -29 -6 -32 5 -4 41 35 73 77 21 29 26 2 8
-39 -38 -84 -125 -140 -138 -89 -7 24 12 139 26 157 11 14 10 14 31 6z m-384
-19 c0 -8 -7 -15 -15 -15 -8 0 -15 -7 -15 -16 0 -12 6 -13 23 -8 12 4 31 9 42
10 11 1 31 6 45 11 32 13 45 8 58 -22 10 -21 8 -27 -15 -45 -33 -26 -25 -25
31 2 31 14 49 31 55 50 11 32 35 45 54 30 7 -6 23 -9 35 -5 20 5 22 2 22 -36
0 -43 -20 -57 -38 -26 -14 26 -39 6 -51 -40 -7 -29 -18 -46 -31 -50 -28 -9
-41 2 -34 31 l6 24 -56 -26 c-31 -14 -66 -24 -78 -22 -31 4 -35 40 -8 83 25
41 19 44 -25 11 -23 -18 -34 -36 -39 -65 -6 -40 -22 -52 -58 -43 -26 6 -31 33
-10 61 10 15 22 44 25 65 3 22 12 43 19 48 22 13 58 9 58 -7z m718 3 c18 -18
15 -37 -6 -32 -10 3 -28 -6 -45 -24 -30 -31 -43 -72 -24 -72 21 0 135 58 157
80 32 32 66 42 85 24 18 -18 19 -46 3 -62 -16 -16 -3 -15 32 3 26 14 30 14 30
1 0 -19 -123 -78 -153 -74 -14 2 -23 11 -25 26 -2 12 -5 22 -6 22 -2 0 -27
-13 -57 -30 -64 -35 -85 -37 -115 -9 l-22 20 -33 -20 c-30 -18 -35 -19 -50 -5
-16 14 -16 20 -4 60 15 51 31 74 52 74 24 0 26 -28 4 -56 -12 -15 -19 -29 -17
-31 12 -12 50 13 97 63 53 54 75 64 97 42z m-1005 -10 c25 1 27 -2 27 -38 0
-33 -4 -40 -19 -40 -10 0 -22 7 -25 16 -6 15 -8 15 -25 0 -11 -10 -22 -29 -26
-44 -9 -36 -23 -52 -46 -52 -26 0 -24 24 7 90 32 69 43 83 63 74 9 -4 28 -7
44 -6z m-208 -8 c3 -5 -1 -20 -9 -32 -30 -43 -15 -43 23 0 26 30 42 41 54 36
23 -8 22 -17 -10 -83 -34 -72 -31 -70 -52 -42 -18 23 -18 23 -46 5 -27 -17
-28 -17 -41 1 -13 17 -15 18 -33 1 -12 -11 -31 -16 -53 -14 -47 4 -51 43 -8
92 39 44 55 45 78 6 l19 -30 16 35 c16 34 48 47 62 25z m7363 -396 c34 -23 27
-83 -10 -104 -25 -13 -31 -13 -55 0 -38 21 -45 81 -11 104 12 9 29 16 38 16 9
0 26 -7 38 -16z m-3290 -295 c-28 -11 -43 -35 -28 -44 6 -4 10 -11 10 -17 0
-7 -6 -6 -15 2 -31 25 -5 70 40 69 16 0 14 -3 -7 -10z m-3775 -41 c34 -17 46
-39 47 -80 0 -50 -8 -66 -41 -83 -68 -35 -136 -2 -146 70 -4 35 -1 45 25 73
32 35 74 42 115 20z"/>
<path d="M10514 7340 c-1 -16 3 -27 7 -24 11 6 12 54 2 54 -5 0 -8 -13 -9 -30z"/>
<path d="M10387 7344 c-14 -14 -7 -35 11 -32 9 2 17 10 17 17 0 16 -18 25 -28
15z"/>
<path d="M10607 7310 c3 -11 7 -20 8 -20 1 0 5 9 8 20 3 12 0 20 -8 20 -8 0
-11 -8 -8 -20z"/>
<path d="M7020 7250 c20 -13 33 -13 25 0 -3 6 -14 10 -23 10 -15 0 -15 -2 -2
-10z"/>
<path d="M7070 7230 c8 -5 20 -10 25 -10 6 0 3 5 -5 10 -8 5 -19 10 -25 10 -5
0 -3 -5 5 -10z"/>
<path d="M7110 7216 c0 -2 7 -7 16 -10 8 -3 12 -2 9 4 -6 10 -25 14 -25 6z"/>
<path d="M6985 7160 c11 -5 27 -9 35 -9 9 0 8 4 -5 9 -11 5 -27 9 -35 9 -9 0
-8 -4 5 -9z"/>
<path d="M7048 7143 c7 -3 16 -2 19 1 4 3 -2 6 -13 5 -11 0 -14 -3 -6 -6z"/>
<path d="M7547 7073 c-7 -6 21 -32 36 -33 4 0 3 9 -3 20 -11 21 -22 25 -33 13z"/>
<path d="M7523 6721 c0 -11 5 -18 9 -15 4 3 5 11 1 19 -7 21 -12 19 -10 -4z"/>
<path d="M7550 6586 c0 -14 5 -26 10 -26 6 0 10 9 10 19 0 11 -4 23 -10 26 -6
4 -10 -5 -10 -19z"/>
<path d="M7512 6576 c2 -16 9 -31 16 -34 17 -5 15 19 -4 43 -15 19 -15 19 -12
-9z"/>
<path d="M7608 6493 c12 -2 30 -2 40 0 9 3 -1 5 -23 4 -22 0 -30 -2 -17 -4z"/>
<path d="M7437 6473 c-14 -13 -6 -23 19 -23 14 0 23 4 20 9 -4 5 0 12 6 14 7
3 1 6 -13 6 -14 1 -29 -2 -32 -6z"/>
<path d="M7328 6443 c12 -2 32 -2 45 0 12 2 2 4 -23 4 -25 0 -35 -2 -22 -4z"/>
<path d="M7823 6413 c1 -17 4 -19 14 -11 7 6 13 16 13 22 0 6 -4 5 -9 -3 -7
-11 -9 -11 -14 0 -3 8 -4 4 -4 -8z"/>
<path d="M7765 6410 c-3 -5 -2 -10 4 -10 5 0 13 5 16 10 3 6 2 10 -4 10 -5 0
-13 -4 -16 -10z"/>
<path d="M7385 6390 c-17 -7 -14 -9 13 -9 20 -1 31 3 27 9 -7 12 -13 12 -40 0z"/>
<path d="M7250 6330 c9 -30 46 -98 72 -131 24 -30 116 -52 214 -52 90 0 94 1
141 36 54 40 84 77 107 132 13 31 14 36 2 32 -66 -26 -115 -31 -256 -31 -145
1 -203 9 -272 38 -15 7 -16 4 -8 -24z"/>
<path d="M7348 6343 c6 -2 18 -2 25 0 6 3 1 5 -13 5 -14 0 -19 -2 -12 -5z"/>
<path d="M7568 6333 c7 -3 16 -2 19 1 4 3 -2 6 -13 5 -11 0 -14 -3 -6 -6z"/>
<path d="M3639 6954 c-50 -25 -109 -86 -90 -92 20 -7 84 33 115 71 16 20 28
39 25 41 -2 2 -25 -7 -50 -20z"/>
<path d="M1645 6989 c-4 -6 -5 -12 -2 -15 2 -3 7 2 10 11 7 17 1 20 -8 4z"/>
<path d="M1924 6944 c-36 -18 -90 -71 -82 -80 16 -15 128 62 128 87 0 12 -10
11 -46 -7z"/>
<path d="M2239 6933 c-70 -40 -94 -90 -31 -64 28 12 67 43 91 74 21 26 -4 22
-60 -10z"/>
<path d="M3755 6650 c-3 -5 -1 -10 4 -10 6 0 11 5 11 10 0 6 -2 10 -4 10 -3 0
-8 -4 -11 -10z"/>
<path d="M1460 6288 c-134 -22 -321 -69 -344 -86 -6 -5 -33 -17 -61 -27 -81
-29 -157 -75 -251 -150 -58 -46 -174 -174 -174 -192 0 -3 -6 -14 -14 -22 -19
-22 -32 -66 -16 -56 7 4 22 -6 39 -25 23 -28 28 -30 39 -17 9 11 10 22 2 42
-12 32 -7 42 11 23 11 -12 23 -3 78 52 113 114 275 203 444 244 l92 23 5 54
c4 40 9 53 19 51 8 -2 24 1 35 6 54 26 278 42 291 22 13 -21 14 -54 2 -63 -9
-6 -8 -7 3 -4 8 2 21 -5 30 -15 12 -15 38 -21 130 -28 225 -20 461 -74 609
-141 62 -28 140 -92 163 -132 11 -21 10 -20 -72 33 -97 64 -269 136 -297 126
-8 -3 -12 -2 -9 2 5 9 -64 29 -125 37 -20 3 -48 9 -61 14 -52 20 -263 34 -418
27 -216 -9 -237 -12 -405 -62 -79 -23 -255 -117 -255 -135 0 -5 -6 -9 -12 -9
-15 0 -158 -147 -158 -162 0 -5 -14 -30 -31 -55 -17 -24 -37 -70 -45 -101 -16
-69 -17 -82 -3 -62 7 11 9 -4 5 -52 -4 -64 7 -92 20 -50 10 29 27 62 31 58 2
-2 -3 -23 -11 -47 -9 -24 -15 -53 -15 -64 1 -16 2 -15 8 5 21 67 105 197 165
255 218 210 685 297 1112 209 146 -30 374 -119 374 -146 0 -5 5 -6 12 -2 7 5
8 3 3 -6 -6 -10 -4 -12 8 -7 9 3 26 -2 39 -13 29 -25 9 -26 -34 -2 -18 11 -58
27 -88 37 -30 10 -67 24 -81 31 -15 7 -38 15 -52 18 -15 2 -32 8 -38 12 -10 6
-90 29 -186 54 -23 5 -33 4 -33 -4 0 -8 -2 -8 -8 0 -9 15 -139 27 -144 13 -2
-5 -57 -10 -123 -12 -66 -1 -128 -7 -137 -12 -11 -7 42 -10 165 -11 136 0 205
-5 272 -18 103 -22 278 -82 335 -116 8 -5 33 -19 55 -31 55 -29 152 -100 199
-144 34 -33 40 -35 53 -22 10 10 11 17 4 21 -6 4 -11 2 -11 -4 0 -6 -4 -9 -9
-5 -6 3 -8 14 -6 25 2 12 1 18 -4 16 -4 -3 -12 3 -18 13 -9 15 -6 17 23 18 19
1 34 -3 34 -9 0 -6 20 -31 44 -57 24 -25 53 -57 64 -70 l19 -25 7 80 c17 194
-65 398 -220 546 -41 38 -212 158 -226 158 -5 0 -43 17 -86 38 -86 43 -190 74
-302 92 -41 6 -97 16 -123 21 -59 11 -263 10 -337 -3z m634 -303 c32 -8 64
-19 70 -26 8 -9 8 -10 -1 -5 -9 5 -13 0 -13 -12 0 -15 5 -19 20 -15 32 8 23
-11 -11 -26 -28 -12 -35 -12 -59 3 -16 9 -36 13 -45 10 -10 -4 -15 -2 -13 6 2
7 -11 17 -29 22 -50 13 -49 27 2 25 25 -1 45 1 45 6 0 4 -6 7 -14 7 -8 0 -18
5 -21 10 -8 13 -3 12 69 -5z m1 -100 c28 -9 51 -15 53 -15 16 2 22 -2 17 -10
-4 -6 -16 -8 -27 -4 -11 3 -30 7 -41 9 -12 2 -42 10 -67 18 -41 14 -42 15 -15
16 17 0 53 -6 80 -14z"/>
<path d="M2070 5966 c0 -2 9 -6 20 -9 11 -3 18 -1 14 4 -5 9 -34 13 -34 5z"/>
<path d="M5375 6290 c-22 -5 -71 -13 -110 -18 -110 -16 -294 -73 -303 -94 -2
-4 -10 -8 -18 -8 -9 0 -12 -5 -8 -12 4 -7 3 -8 -4 -4 -6 4 -22 1 -34 -5 -29
-15 -153 -109 -145 -109 3 0 -12 -18 -33 -39 -22 -22 -40 -45 -40 -51 0 -6 -4
-9 -8 -6 -5 3 -9 -1 -9 -10 0 -8 25 11 56 41 200 197 510 295 839 264 289 -27
536 -148 677 -333 31 -41 81 -143 90 -183 3 -18 10 -33 15 -33 11 0 -7 85 -29
136 -11 24 -18 44 -16 44 7 0 -59 96 -90 131 -102 114 -295 221 -474 260 -110
25 -304 41 -356 29z"/>
<path d="M9030 6281 c-9 -5 -47 -12 -85 -15 -212 -17 -469 -116 -615 -237 -61
-51 -137 -124 -120 -115 8 4 4 -2 -9 -13 -13 -12 -19 -21 -15 -21 5 0 -6 -14
-25 -30 -18 -17 -31 -30 -27 -30 3 0 -14 -38 -38 -84 -161 -305 -65 -638 249
-861 145 -103 320 -175 515 -211 141 -27 402 -24 536 4 420 90 707 309 798
612 23 75 23 313 1 389 -18 59 -63 148 -103 201 -61 81 -229 230 -259 230 -6
0 -21 9 -35 19 -36 29 -218 99 -314 122 -151 36 -422 59 -454 40z m468 -168
c-10 -2 -26 -2 -35 0 -10 3 -2 5 17 5 19 0 27 -2 18 -5z m-121 -60 c-4 -3 -2
-12 3 -18 13 -16 42 -126 36 -133 -8 -7 -26 46 -26 76 -1 39 -22 62 -49 55
-12 -3 -20 -11 -17 -18 2 -7 -1 -18 -7 -24 -9 -9 -9 -14 2 -20 9 -6 12 -18 7
-37 -4 -16 -4 -26 0 -22 14 14 34 -15 34 -49 0 -32 1 -33 22 -22 22 12 22 12
5 -14 -21 -33 -22 -58 -2 -51 11 5 15 -2 15 -27 0 -18 7 -40 16 -50 10 -11 14
-25 9 -36 -6 -16 -8 -16 -27 7 l-21 25 8 -25 c4 -14 9 -41 10 -60 2 -19 6 -45
10 -56 5 -18 2 -22 -20 -27 -27 -5 -27 -4 -22 38 5 53 -11 75 -29 40 -9 -18
-10 -33 -2 -59 9 -29 8 -43 -7 -75 -11 -25 -15 -47 -10 -58 6 -15 10 -10 21
22 7 22 13 36 13 31 1 -6 6 -5 13 2 22 22 38 13 38 -19 0 -17 -4 -28 -10 -24
-6 4 -8 -7 -5 -27 4 -28 3 -29 -4 -8 -5 14 -6 36 -3 49 9 44 -22 17 -39 -33
-9 -27 -22 -52 -30 -57 -11 -7 -9 -9 7 -9 12 0 27 -7 34 -15 15 -18 7 -19 -21
-4 -19 9 -19 9 -10 -10 6 -11 16 -23 21 -26 6 -4 8 -15 5 -25 -4 -13 1 -22 14
-29 26 -15 31 -14 25 3 -14 35 111 72 141 42 15 -15 15 -16 -7 -16 -13 0 -32
-6 -41 -12 -18 -14 -26 -66 -13 -86 4 -7 4 -12 0 -12 -19 0 -101 46 -120 67
-26 30 -70 39 -82 17 -5 -9 -13 -16 -18 -16 -5 0 -7 -5 -6 -11 14 -46 13 -79
-3 -104 l-18 -27 -18 23 c-11 13 -19 29 -19 37 0 14 -10 18 -45 15 -17 -2 -18
0 -5 9 12 9 9 10 -15 5 -16 -4 -30 -7 -30 -8 -1 -1 -7 -15 -13 -31 -12 -27
-15 -28 -62 -22 -29 4 -50 3 -50 -3 0 -14 -164 25 -226 53 -30 14 -54 27 -54
30 0 6 31 -4 46 -15 10 -8 190 -59 207 -59 4 0 7 9 7 21 0 11 4 28 10 38 8 16
6 17 -16 13 -16 -3 -23 -9 -20 -18 3 -8 1 -14 -5 -14 -6 0 -7 -5 -3 -11 4 -8
-4 -9 -27 -4 -35 8 -49 20 -49 44 0 11 4 10 19 -3 10 -10 22 -13 25 -8 6 9
-96 68 -129 74 -11 1 -30 15 -43 30 -22 26 -22 27 -4 60 10 18 31 37 45 42 30
11 32 10 41 -21 6 -17 3 -20 -12 -16 -21 5 -49 -21 -33 -31 6 -4 8 -13 5 -20
-3 -9 12 -23 42 -40 43 -24 76 -37 46 -18 -10 7 -8 14 8 34 28 36 26 50 -6 42
-18 -5 -25 -3 -20 4 3 6 1 12 -5 14 -15 5 -2 48 14 48 7 0 25 -13 40 -30 32
-33 47 -38 47 -15 0 9 7 18 15 21 8 4 15 12 15 20 0 19 17 17 30 -3 10 -16 10
-15 5 4 -6 22 8 37 34 38 8 0 18 8 22 18 5 9 13 25 18 35 4 9 18 17 29 17 23
1 84 53 76 66 -2 4 4 14 14 21 32 23 44 57 37 105 -6 40 -4 45 16 50 21 6 21
10 16 86 -4 59 -1 91 11 126 10 25 20 47 24 49 4 2 5 17 1 33 -5 27 -3 29 25
29 17 0 34 5 37 10 3 6 16 10 27 10 12 0 18 -3 15 -7z m99 -2 c-3 -5 8 -14 26
-20 43 -15 31 -23 -15 -9 -37 11 -52 38 -21 38 8 0 13 -4 10 -9z m-49 -223
c-3 -8 -6 -5 -6 6 -1 11 2 17 5 13 3 -3 4 -12 1 -19z m65 -240 c-7 -7 -12 -20
-12 -29 0 -9 -7 -20 -16 -23 -21 -8 -24 -8 -24 4 0 14 52 71 58 65 3 -3 0 -11
-6 -17z m-54 -136 c-1 -25 -6 -41 -12 -39 -15 5 -19 33 -11 75 9 48 26 23 23
-36z m22 -87 c0 -8 -4 -17 -10 -20 -6 -4 -10 5 -10 20 0 15 4 24 10 20 6 -3
10 -12 10 -20z m85 -25 c3 -5 1 -10 -4 -10 -6 0 -11 5 -11 10 0 6 2 10 4 10 3
0 8 -4 11 -10z m185 -67 c0 -13 -43 -53 -58 -53 -9 0 -7 9 10 29 21 27 48 41
48 24z m-95 -30 c11 -7 14 -13 7 -13 -6 0 -12 -5 -12 -11 0 -13 -30 -44 -31
-32 -1 4 -1 15 0 25 1 9 -7 23 -18 30 -12 8 -18 17 -15 20 7 8 45 -2 69 -19z
m-141 -18 c3 -8 1 -15 -4 -15 -6 0 -10 7 -10 15 0 8 2 15 4 15 2 0 6 -7 10
-15z m216 -125 c-19 -12 -19 -10 -13 25 6 29 6 29 16 6 8 -17 7 -25 -3 -31z
m-90 10 c0 -13 -7 -20 -20 -20 -18 0 -19 2 -8 20 7 11 16 20 20 20 5 0 8 -9 8
-20z"/>
<path d="M9282 5870 c0 -19 2 -27 5 -17 2 9 2 25 0 35 -3 9 -5 1 -5 -18z"/>
<path d="M9345 5787 c-4 -10 -5 -21 -1 -24 10 -10 18 4 13 24 -4 17 -4 17 -12
0z"/>
<path d="M9358 5743 c7 -3 16 -2 19 1 4 3 -2 6 -13 5 -11 0 -14 -3 -6 -6z"/>
<path d="M9285 5720 c-3 -5 -1 -10 4 -10 6 0 11 5 11 10 0 6 -2 10 -4 10 -3 0
-8 -4 -11 -10z"/>
<path d="M9258 5563 c-10 -2 -18 -8 -18 -13 0 -5 -7 -16 -16 -24 -9 -10 -11
-16 -4 -16 7 0 9 -8 5 -19 -7 -22 27 -67 43 -57 13 8 16 56 4 56 -5 0 -17 7
-28 15 -18 15 -18 15 9 9 25 -6 27 -4 27 25 0 17 -1 30 -2 30 -2 -1 -11 -3
-20 -6z"/>
<path d="M9300 5529 c0 -11 5 -17 10 -14 6 3 10 13 10 21 0 8 -4 14 -10 14 -5
0 -10 -9 -10 -21z"/>
<path d="M9190 5460 c0 -5 7 -10 16 -10 8 0 12 5 9 10 -3 6 -10 10 -16 10 -5
0 -9 -4 -9 -10z"/>
<path d="M9207 5410 c8 -29 20 -34 32 -11 8 15 7 20 -5 25 -26 10 -32 7 -27
-14z"/>
<path d="M9083 5379 c-1 -10 4 -19 10 -20 7 0 25 -3 41 -5 26 -5 27 -3 13 10
-9 9 -26 20 -39 25 -20 7 -24 6 -25 -10z"/>
<path d="M8939 5330 c-21 -14 -2 -24 23 -13 17 7 19 11 6 15 -8 4 -21 2 -29
-2z"/>
<path d="M9060 5306 c0 -31 20 -34 38 -6 7 11 8 20 3 20 -5 0 -16 3 -25 6 -12
5 -16 0 -16 -20z"/>
<path d="M9124 5308 c-9 -14 -2 -16 26 -8 25 6 25 6 3 12 -13 3 -26 2 -29 -4z"/>
<path d="M8852 5219 c2 -7 10 -15 17 -17 8 -3 12 1 9 9 -2 7 -10 15 -17 17 -8
3 -12 -1 -9 -9z"/>
<path d="M8382 6160 c-7 -11 -9 -20 -4 -20 10 0 32 22 32 32 0 15 -15 8 -28
-12z"/>
<path d="M8322 6098 c-7 -7 -12 -19 -12 -27 0 -11 4 -10 20 4 21 19 26 35 12
35 -4 0 -13 -5 -20 -12z"/>
<path d="M8257 6022 c-10 -11 -14 -23 -9 -26 12 -7 35 19 30 34 -2 7 -11 3
-21 -8z"/>
<path d="M8190 5955 c-19 -23 -7 -39 13 -17 10 11 14 23 9 26 -5 3 -15 -1 -22
-9z"/>
<path d="M4235 5890 c-15 -17 -16 -20 -3 -20 19 0 42 26 30 34 -5 3 -17 -3
-27 -14z"/>
<path d="M2870 5885 c7 -8 19 -15 27 -15 13 0 13 3 3 15 -7 8 -19 15 -27 15
-13 0 -13 -3 -3 -15z"/>
<path d="M8120 5885 c-7 -9 -10 -18 -7 -22 8 -7 37 15 37 28 0 14 -16 11 -30
-6z"/>
<path d="M2950 5820 c14 -10 27 -17 29 -15 8 8 -22 35 -38 35 -12 0 -10 -5 9
-20z"/>
<path d="M4165 5820 c-10 -11 -14 -20 -8 -20 5 0 18 9 28 20 10 11 14 20 8 20
-5 0 -18 -9 -28 -20z"/>
<path d="M8040 5815 c-10 -12 -10 -15 3 -15 8 0 20 7 27 15 10 12 10 15 -3 15
-8 0 -20 -7 -27 -15z"/>
<path d="M1455 5769 c-22 -4 -50 -5 -63 -2 -12 3 -28 1 -35 -4 -6 -5 -22 -10
-34 -11 -11 0 -40 -10 -62 -20 -23 -11 -39 -16 -35 -11 10 17 -13 9 -31 -11
-10 -11 -23 -20 -30 -20 -6 0 -20 -9 -32 -19 -11 -11 -38 -28 -60 -39 -22 -11
-46 -29 -54 -39 -13 -17 -13 -17 11 0 85 59 296 138 413 153 26 4 50 11 53 16
9 14 3 15 -41 7z"/>
<path d="M3020 5765 c7 -8 19 -15 27 -15 13 0 13 3 3 15 -7 8 -19 15 -27 15
-13 0 -13 -3 -3 -15z"/>
<path d="M4096 5764 c-11 -7 -16 -17 -13 -21 4 -4 15 1 24 10 22 21 14 30 -11
11z"/>
<path d="M7976 5764 c-11 -7 -16 -17 -13 -21 4 -4 15 1 24 10 9 9 15 19 12 21
-2 2 -13 -2 -23 -10z"/>
<path d="M1812 5729 c-13 -5 -84 -7 -158 -5 -74 2 -149 0 -167 -5 -110 -29
-195 -56 -212 -67 -19 -13 -19 -13 5 -8 14 2 62 14 107 25 123 31 254 44 366
36 55 -3 104 -8 111 -10 6 -2 27 -6 46 -9 79 -12 141 -26 196 -46 32 -11 60
-20 62 -20 2 0 0 -5 -4 -12 -4 -6 -3 -8 3 -5 12 7 73 -14 73 -25 0 -4 5 -8 11
-8 19 0 106 -47 128 -69 12 -12 26 -21 31 -21 6 0 10 -7 10 -15 0 -8 7 -15 15
-15 8 0 15 -5 15 -11 0 -5 4 -8 9 -5 5 3 11 -1 14 -8 3 -8 14 -19 25 -25 18
-10 18 -9 3 23 -9 18 -33 46 -53 61 -20 16 -35 32 -32 37 3 4 -2 8 -11 8 -9 0
-14 4 -10 10 3 5 -13 14 -35 20 -22 6 -40 16 -40 23 0 17 -172 89 -193 81 -10
-4 -17 -1 -17 6 0 7 -6 10 -13 7 -7 -3 -24 1 -38 9 -13 7 -36 13 -51 14 -16 0
-28 5 -28 11 0 6 -6 9 -14 6 -8 -3 -38 1 -68 9 -61 16 -56 16 -86 3z"/>
<path d="M3090 5721 c0 -9 24 -21 43 -21 6 0 2 7 -9 15 -22 17 -34 19 -34 6z"/>
<path d="M5664 5719 c-3 -6 5 -21 18 -33 14 -11 28 -31 32 -43 4 -13 13 -23
21 -23 7 0 20 -3 29 -6 34 -13 17 39 -26 78 -43 39 -62 46 -74 27z"/>
<path d="M6073 5705 c31 -27 56 -32 75 -13 15 15 -28 38 -72 38 l-31 -1 28
-24z"/>
<path d="M4014 5705 c-10 -8 -14 -15 -8 -15 5 0 19 7 30 15 10 8 14 15 8 15
-5 0 -19 -7 -30 -15z"/>
<path d="M7045 5710 c3 -5 16 -10 28 -10 18 0 19 2 7 10 -20 13 -43 13 -35 0z"/>
<path d="M7885 5709 c-11 -17 0 -20 21 -4 17 13 17 14 2 15 -9 0 -20 -5 -23
-11z"/>
<path d="M7130 5680 c0 -8 24 -20 41 -20 6 0 8 4 5 9 -8 12 -46 21 -46 11z"/>
<path d="M1535 5666 c-74 -14 -61 -27 15 -15 30 5 72 6 93 3 27 -4 37 -2 32 6
-4 6 9 4 31 -5 30 -12 39 -13 46 -3 6 9 10 10 16 2 4 -6 14 -14 22 -18 20 -8
-70 0 -92 9 -12 5 -16 2 -14 -10 2 -14 15 -18 62 -20 62 -4 188 -27 239 -45
30 -10 30 -10 -5 -4 -98 16 -176 23 -193 18 -10 -3 -23 -2 -30 3 -18 14 -164
1 -179 -16 -7 -8 -8 -11 -2 -8 7 4 54 7 105 7 86 1 190 -12 309 -39 67 -15 93
-14 86 4 -3 8 -1 15 4 15 6 0 10 -8 11 -17 0 -10 3 -13 5 -7 2 6 19 9 37 7 29
-3 28 -1 -18 21 -27 14 -44 25 -38 25 20 1 93 -30 93 -40 0 -5 7 -5 17 -2 12
5 14 3 8 -7 -5 -9 -4 -11 4 -6 6 4 27 -2 46 -14 19 -12 39 -19 45 -15 5 3 20
1 32 -6 l23 -11 -20 20 c-21 21 -161 94 -205 107 -14 3 -48 18 -76 31 -29 13
-59 21 -68 18 -9 -3 -16 -2 -16 2 0 5 -15 9 -32 10 -18 0 -100 3 -183 6 -88 2
-175 0 -210 -6z m308 -43 c-7 -2 -19 -2 -25 0 -7 3 -2 5 12 5 14 0 19 -2 13
-5z m93 -7 c17 -13 15 -14 -19 -6 -47 10 -59 20 -26 20 14 0 34 -6 45 -14z
m334 -102 c0 -2 -9 0 -20 6 -11 6 -20 13 -20 16 0 2 9 0 20 -6 11 -6 20 -13
20 -16z"/>
<path d="M3184 5665 c22 -17 36 -19 36 -6 0 10 -24 21 -43 21 -7 0 -3 -7 7
-15z"/>
<path d="M7803 5673 c-14 -5 -18 -23 -5 -23 5 0 17 7 28 15 14 11 15 14 4 14
-8 0 -21 -3 -27 -6z"/>
<path d="M3930 5660 c-8 -5 -12 -11 -9 -14 3 -3 14 1 25 9 21 16 8 20 -16 5z"/>
<path d="M7220 5652 c0 -10 41 -24 49 -17 6 7 0 11 -26 19 -13 4 -23 3 -23 -2z"/>
<path d="M1415 5640 l-20 -9 20 0 c11 0 29 4 40 9 l20 9 -20 0 c-11 0 -29 -4
-40 -9z"/>
<path d="M7718 5643 c-10 -3 -18 -9 -18 -14 0 -10 7 -11 34 0 23 9 9 19 -16
14z"/>
<path d="M541 5624 c0 -11 3 -14 6 -6 3 7 2 16 -1 19 -3 4 -6 -2 -5 -13z"/>
<path d="M1225 5630 c-3 -5 -2 -10 4 -10 5 0 13 5 16 10 3 6 2 10 -4 10 -5 0
-13 -4 -16 -10z"/>
<path d="M3264 5631 c8 -12 46 -21 46 -11 0 8 -24 20 -41 20 -6 0 -8 -4 -5 -9z"/>
<path d="M7315 5630 c-3 -4 6 -10 20 -12 14 -3 25 -2 25 2 0 11 -39 20 -45 10z"/>
<path d="M1555 5620 c-15 -6 -6 -9 33 -9 28 -1 52 4 52 9 0 12 -57 12 -85 0z"/>
<path d="M3835 5620 c-8 -13 15 -13 35 0 12 8 11 10 -7 10 -12 0 -25 -4 -28
-10z"/>
<path d="M5926 5613 c-6 -14 -5 -15 5 -6 7 7 10 15 7 18 -3 3 -9 -2 -12 -12z"/>
<path d="M7615 5620 c-18 -8 -17 -9 8 -9 15 -1 27 4 27 9 0 12 -8 12 -35 0z"/>
<path d="M7410 5616 c0 -2 11 -6 25 -8 14 -3 25 -1 25 3 0 5 -11 9 -25 9 -14
0 -25 -2 -25 -4z"/>
<path d="M7515 5610 c-18 -8 -17 -9 8 -9 15 -1 27 4 27 9 0 12 -8 12 -35 0z"/>
<path d="M1147 5591 c-38 -25 -42 -31 -19 -24 12 3 28 14 38 24 21 23 17 23
-19 0z"/>
<path d="M3355 5600 c3 -5 16 -10 28 -10 18 0 19 2 7 10 -20 13 -43 13 -35 0z"/>
<path d="M3753 5602 c-13 -2 -23 -8 -23 -13 0 -9 37 -3 49 7 8 7 -4 10 -26 6z"/>
<path d="M6785 5585 c-30 -30 -31 -54 -4 -89 15 -19 29 -26 52 -25 26 0 28 2
12 8 -11 5 -24 7 -30 5 -5 -2 -18 8 -29 22 -13 19 -15 29 -7 37 6 6 11 19 11
29 0 11 12 21 33 27 25 7 27 9 9 10 -13 1 -34 -10 -47 -24z"/>
<path d="M6020 5593 c-110 -13 -119 -20 -90 -68 33 -53 93 -78 200 -82 91 -4
132 8 138 41 5 21 -30 60 -66 75 -40 16 -153 37 -182 34z"/>
<path d="M6873 5587 c0 -10 4 -17 9 -17 4 0 8 -6 8 -14 0 -8 5 -18 10 -21 17
-10 11 21 -8 45 -15 18 -19 20 -19 7z"/>
<path d="M3450 5580 c0 -5 11 -10 25 -10 14 0 25 5 25 10 0 6 -11 10 -25 10
-14 0 -25 -4 -25 -10z"/>
<path d="M3640 5580 c0 -5 11 -10 25 -10 14 0 25 5 25 10 0 6 -11 10 -25 10
-14 0 -25 -4 -25 -10z"/>
<path d="M3553 5573 c9 -2 23 -2 30 0 6 3 -1 5 -18 5 -16 0 -22 -2 -12 -5z"/>
<path d="M5534 5569 c-38 -11 -67 -41 -62 -65 5 -26 83 -71 158 -90 78 -20
183 -14 238 13 46 22 56 67 22 98 -44 40 -273 68 -356 44z"/>
<path d="M969 5548 c-12 -23 -12 -23 10 -4 23 21 26 26 11 26 -5 0 -15 -10
-21 -22z"/>
<path d="M1465 5555 c-23 -10 -25 -13 -10 -13 28 -1 61 13 49 20 -5 3 -22 0
-39 -7z"/>
<path d="M116 5538 c-56 -79 42 -171 109 -103 51 50 16 125 -58 125 -26 0 -40
-6 -51 -22z"/>
<path d="M1860 5510 c0 -11 2 -20 4 -20 2 0 6 9 9 20 3 11 1 20 -4 20 -5 0 -9
-9 -9 -20z"/>
<path d="M1658 5498 c-13 -13 -26 -22 -30 -21 -4 2 -4 -5 -1 -14 4 -10 2 -14
-5 -9 -6 3 -14 1 -18 -5 -4 -8 -3 -9 4 -5 7 4 12 2 12 -3 0 -6 -4 -11 -9 -11
-5 0 -7 -10 -4 -21 5 -19 3 -20 -14 -11 -18 10 -20 8 -21 -18 0 -16 3 -32 8
-35 5 -3 7 -12 3 -21 -4 -11 0 -14 19 -10 33 6 50 -6 42 -29 -6 -16 -9 -15
-26 6 -11 13 -17 18 -13 12 11 -23 -4 -34 -28 -21 -12 7 -25 11 -29 10 -5 -1
-8 7 -8 18 0 11 -1 20 -3 20 -1 0 -17 -4 -34 -9 -22 -6 -32 -6 -30 1 1 6 -6
12 -15 13 -11 2 -15 -2 -11 -11 3 -9 -2 -14 -16 -14 -25 0 -27 12 -5 46 9 13
14 28 10 32 -4 3 -11 0 -15 -7 -6 -9 -11 -10 -15 -2 -4 6 -12 11 -17 11 -6 0
-7 -4 -4 -10 3 -5 1 -10 -6 -10 -19 0 -4 -105 20 -138 11 -16 35 -33 53 -39
25 -7 32 -14 31 -30 -2 -15 8 -28 30 -42 40 -24 93 -39 83 -23 -5 8 -2 10 8 6
20 -8 21 -24 2 -24 -17 0 -25 -18 -21 -53 2 -15 -1 -29 -6 -33 -5 -3 -7 -10
-4 -15 4 -5 0 -9 -7 -9 -11 0 -14 15 -12 63 1 34 0 50 -2 36 -3 -14 -17 -33
-34 -42 -30 -18 -55 -23 -46 -8 3 4 -6 6 -19 3 -29 -5 -31 -11 -10 -26 13 -9
11 -11 -10 -11 -29 0 -31 11 -9 43 25 36 8 38 -26 4 -18 -18 -30 -25 -30 -17
0 8 -9 19 -21 25 -12 7 -18 18 -15 26 6 16 -6 20 -46 12 -21 -5 -37 -31 -38
-60 0 -25 20 -54 86 -125 15 -16 158 -53 204 -53 20 0 41 5 47 11 6 6 30 15
52 19 43 8 63 -4 97 -56 l16 -24 27 43 c14 24 32 52 39 63 6 10 16 29 22 42
12 27 24 29 17 2 -3 -12 0 -20 8 -20 7 0 16 12 21 28 5 20 8 23 11 10 5 -22
17 -23 36 -4 27 27 57 22 113 -20 17 -13 40 -23 50 -23 48 -1 53 -4 44 -21 -8
-15 1 -18 87 -28 66 -8 101 -17 115 -29 19 -17 21 -17 39 6 11 13 22 34 25 47
7 29 -3 77 -15 69 -5 -3 -7 3 -5 12 5 19 -8 40 -70 109 -39 44 -97 74 -141 74
-13 0 -27 5 -30 11 -4 5 -12 8 -18 6 -7 -2 -20 0 -29 5 -14 6 -16 5 -12 -7 4
-8 2 -15 -3 -15 -19 0 -22 13 -9 39 l14 26 -40 -3 c-35 -4 -39 -2 -36 14 2 11
8 19 15 19 34 0 23 32 -33 92 -63 69 -59 63 -39 63 9 0 34 -15 55 -32 100 -88
105 -91 108 -74 2 9 11 16 21 16 9 0 21 4 27 9 5 6 25 12 44 14 99 13 126 49
73 99 -44 40 -62 47 -94 35 -24 -10 -33 -8 -60 12 -26 20 -35 21 -56 12 -13
-6 -21 -16 -17 -22 4 -7 -2 -9 -17 -7 -18 2 -24 -3 -31 -29 -7 -26 -12 -30
-31 -26 -12 3 -28 13 -34 21 -7 9 -13 13 -13 9 0 -4 -9 -3 -21 3 -41 22 -147
8 -110 -14 6 -4 11 -3 11 3 0 14 31 18 63 8 34 -11 67 -81 35 -74 -8 1 -12
-11 -12 -33 0 -32 -10 -49 -28 -50 -12 0 -9 38 3 42 7 2 7 11 0 28 -5 14 -10
19 -10 13 -1 -7 -9 -13 -19 -13 -26 0 -42 -20 -42 -53 0 -25 3 -28 27 -25 14
2 28 -2 30 -9 3 -7 -3 -10 -15 -6 -35 9 -34 -16 2 -39 34 -22 46 -38 27 -38
-5 0 -14 6 -21 14 -13 16 -39 10 -56 -12 -6 -8 -16 -12 -22 -8 -8 5 -10 2 -6
-8 3 -9 1 -16 -5 -16 -20 0 -12 38 11 54 l22 16 -27 0 c-15 0 -27 -5 -27 -11
0 -6 -8 -8 -17 -5 -24 7 -44 -6 -58 -41 l-12 -28 -8 28 c-10 36 22 72 71 81
28 6 33 11 32 31 -2 18 -5 21 -15 13 -9 -7 -13 -7 -14 1 -1 6 -2 17 -3 24 -1
6 -11 12 -23 11 -12 0 -20 3 -17 8 3 5 18 8 32 6 22 -2 28 2 30 20 4 25 -15
30 -24 7 -4 -8 -13 -15 -21 -15 -10 0 -12 6 -7 22 6 19 5 21 -8 11 -8 -7 -18
-10 -21 -6 -4 3 -7 1 -7 -4 0 -6 6 -14 13 -16 7 -3 5 -6 -5 -6 -10 -1 -18 6
-18 14 0 8 -4 15 -10 15 -18 0 -11 25 24 83 37 62 38 69 4 35z m435 -29 c-4
-15 -8 -17 -14 -8 -6 11 4 28 18 29 0 0 -1 -9 -4 -21z m10 -72 c-4 -6 0 -8 10
-4 13 5 17 1 17 -14 0 -16 -4 -19 -22 -13 -25 7 -58 33 -58 45 0 12 34 16 47
6 7 -5 10 -14 6 -20z m-93 -102 c7 -9 8 -15 2 -15 -5 0 -12 7 -16 15 -3 8 -4
15 -2 15 2 0 9 -7 16 -15z m-450 -34 c0 -10 -6 -21 -14 -24 -11 -4 -11 -1 -2
19 13 29 16 30 16 5z m387 4 c0 -8 -4 -12 -9 -9 -5 3 -6 10 -3 15 9 13 12 11
12 -6z m-342 -65 c3 -6 -1 -7 -9 -4 -18 7 -21 14 -7 14 6 0 13 -4 16 -10z
m-90 -9 c3 -5 1 -12 -5 -16 -5 -3 -10 1 -10 9 0 18 6 21 15 7z m405 -86 c0 -8
-4 -15 -10 -15 -5 0 -7 7 -4 15 4 8 8 15 10 15 2 0 4 -7 4 -15z m156 -40 c-32
-30 -34 -15 -3 26 17 24 23 27 25 14 2 -9 -8 -27 -22 -40z m-183 4 c-6 -6 -9
-19 -6 -28 3 -10 2 -12 -4 -6 -9 12 -28 13 -39 3 -10 -11 -92 -10 -98 1 -3 4
12 6 35 4 22 -3 47 -2 57 3 9 4 20 8 24 8 4 1 13 7 20 14 6 6 14 12 17 12 3 0
0 -5 -6 -11z m347 -29 c0 -5 -2 -10 -4 -10 -3 0 -8 5 -11 10 -3 6 -1 10 4 10
6 0 11 -4 11 -10z m-359 -39 c-6 -10 -8 -20 -6 -23 3 -3 -2 -5 -10 -5 -10 0
-14 6 -10 14 3 8 5 19 5 24 0 5 7 9 15 9 12 0 13 -4 6 -19z m349 -1 c0 -5 -4
-10 -10 -10 -5 0 -10 5 -10 10 0 6 5 10 10 10 6 0 10 -4 10 -10z m-573 -116
c-3 -3 -12 -4 -19 -1 -8 3 -5 6 6 6 11 1 17 -2 13 -5z"/>
<path d="M5135 5490 c-7 -33 -30 -56 -65 -65 -14 -3 -34 -13 -44 -21 -19 -14
-19 -14 3 -35 20 -19 38 -24 103 -28 11 -1 22 -16 29 -41 12 -39 33 -53 42
-27 3 8 12 5 29 -11 28 -26 55 -21 60 10 2 16 15 24 50 33 34 8 49 9 52 1 2
-6 5 -3 5 6 1 11 -15 22 -46 33 -103 36 -136 63 -127 100 5 19 -2 27 -40 48
l-45 25 -6 -28z"/>
<path d="M6880 5498 c-12 -22 -12 -22 6 -6 10 10 15 20 12 24 -4 3 -12 -5 -18
-18z"/>
<path d="M2244 5487 c10 -7 31 -24 46 -38 15 -14 36 -29 46 -33 11 -4 6 5 -13
23 -43 39 -75 61 -88 60 -5 0 -1 -6 9 -12z"/>
<path d="M1796 5475 c-3 -9 0 -15 10 -15 8 0 22 7 30 15 14 13 13 15 -9 15
-14 0 -27 -7 -31 -15z"/>
<path d="M5376 5460 c-21 -16 -47 -32 -58 -35 -27 -9 -22 -20 19 -34 20 -8 59
-36 86 -63 49 -49 67 -57 177 -74 31 -4 30 -3 -12 13 -74 28 -101 68 -144 211
-5 19 -26 14 -68 -18z"/>
<path d="M2335 5455 c34 -28 41 -30 51 -13 4 7 3 8 -4 4 -7 -4 -12 -3 -12 1 0
5 -15 14 -32 21 l-33 12 30 -25z"/>
<path d="M514 5385 c6 -89 22 -155 36 -155 12 0 11 128 -1 136 -5 3 -9 17 -9
32 0 15 -8 36 -17 47 -14 19 -15 14 -9 -60z"/>
<path d="M2390 5421 c0 -6 4 -12 8 -15 5 -3 9 1 9 9 0 8 -4 15 -9 15 -4 0 -8
-4 -8 -9z"/>
<path d="M5884 5378 c-8 -16 -14 -31 -12 -32 8 -5 144 -46 153 -46 6 0 -9 10
-33 21 -40 20 -69 59 -58 78 3 4 -4 8 -15 8 -12 1 -25 -9 -35 -29z"/>
<path d="M2365 5390 c3 -5 8 -10 11 -10 2 0 4 5 4 10 0 6 -5 10 -11 10 -5 0
-7 -4 -4 -10z"/>
<path d="M1759 5363 c-1 -5 -1 -12 0 -17 1 -4 -4 -14 -10 -22 -10 -12 -8 -13
7 -8 35 13 45 25 33 40 -12 15 -28 18 -30 7z"/>
<path d="M5040 5311 c-20 -39 -13 -49 35 -47 32 1 41 4 32 11 -8 6 -19 20 -26
33 -14 27 -27 28 -41 3z"/>
<path d="M2565 5310 c3 -5 8 -10 11 -10 2 0 4 5 4 10 0 6 -5 10 -11 10 -5 0
-7 -4 -4 -10z"/>
<path d="M2193 5303 c-7 -2 -13 -8 -13 -12 0 -6 18 -6 65 -2 13 2 -17 21 -30
20 -5 0 -16 -3 -22 -6z"/>
<path d="M2380 5301 c0 -6 4 -13 10 -16 6 -3 7 1 4 9 -7 18 -14 21 -14 7z"/>
<path d="M4790 5281 c-38 -8 -80 -31 -80 -44 0 -4 14 -14 32 -21 29 -12 35
-12 65 8 21 13 33 29 33 44 0 12 -3 21 -7 21 -5 -1 -24 -4 -43 -8z"/>
<path d="M1760 5260 c0 -5 7 -10 16 -10 8 0 12 5 9 10 -3 6 -10 10 -16 10 -5
0 -9 -4 -9 -10z"/>
<path d="M4908 5248 c-30 -46 -20 -72 29 -73 12 0 25 -3 29 -7 8 -8 24 -1 24
10 0 4 -13 15 -29 25 -19 11 -31 27 -33 44 l-3 27 -17 -26z"/>
<path d="M5207 5226 c-10 -26 -8 -48 3 -41 6 3 10 -4 9 -17 0 -25 -17 -71 -18
-50 -1 7 -13 11 -28 11 -24 -2 -25 -2 -5 -6 12 -2 22 -11 22 -19 0 -19 16 -18
94 6 43 14 66 26 66 36 0 8 4 13 9 10 5 -4 7 3 4 13 -6 24 -47 35 -72 20 -23
-15 -53 -5 -45 16 4 9 1 15 -9 15 -8 0 -17 5 -19 12 -3 7 -7 5 -11 -6z m63
-96 c0 -5 -4 -10 -10 -10 -5 0 -10 5 -10 10 0 6 5 10 10 10 6 0 10 -4 10 -10z"/>
<path d="M2123 5207 c5 -15 39 -16 44 -2 2 6 -8 12 -23 13 -17 1 -24 -2 -21
-11z"/>
<path d="M5160 5206 c0 -2 8 -10 18 -17 15 -13 16 -12 3 4 -13 16 -21 21 -21
13z"/>
<path d="M1248 5193 c-20 -5 -23 -30 -8 -53 7 -11 10 -12 10 -2 0 9 7 11 20 7
16 -5 19 -3 13 11 -5 14 -2 16 21 10 24 -6 25 -5 15 12 -11 18 -38 23 -71 15z"/>
<path d="M1246 5112 c-2 -4 -1 -14 3 -21 6 -9 10 -7 14 8 5 20 -7 29 -17 13z"/>
<path d="M2350 5099 c0 -5 5 -7 10 -4 6 3 10 8 10 11 0 2 -4 4 -10 4 -5 0 -10
-5 -10 -11z"/>
<path d="M5048 5103 c7 -3 16 -2 19 1 4 3 -2 6 -13 5 -11 0 -14 -3 -6 -6z"/>
<path d="M2404 4999 c-3 -6 -1 -16 5 -22 8 -8 11 -5 11 11 0 24 -5 28 -16 11z"/>
<path d="M1840 4897 c0 -8 6 -14 14 -14 8 0 12 6 9 14 -3 7 -9 13 -14 13 -5 0
-9 -6 -9 -13z"/>
<path d="M1895 4877 c-23 -26 -26 -37 -11 -31 9 3 16 10 16 15 0 5 7 9 16 9 8
0 12 5 9 10 -8 13 -18 12 -30 -3z"/>
<path d="M1821 4853 c-1 -7 -9 -21 -20 -32 -20 -20 -96 -118 -123 -159 -22
-33 -11 -41 50 -35 87 7 137 16 125 20 -7 3 -13 10 -13 18 0 7 -11 13 -26 13
-15 0 -30 6 -35 13 -12 19 -11 32 1 24 6 -3 10 -1 10 4 0 6 -7 11 -15 11 -9 0
-12 6 -8 16 5 13 7 13 14 2 7 -10 9 -9 9 5 0 9 5 17 11 17 6 0 8 -9 4 -20 -4
-14 -2 -20 9 -20 10 0 13 6 10 15 -9 21 13 19 48 -6 22 -16 29 -28 25 -45 -2
-13 0 -24 5 -24 5 0 6 -4 3 -10 -8 -13 5 -13 63 1 53 13 77 31 85 61 5 16 3
18 -6 9 -14 -14 -49 -14 -82 1 -39 18 -29 30 12 13 20 -8 39 -13 42 -10 7 8
-21 25 -31 19 -4 -3 -8 -1 -8 4 0 17 -59 20 -65 4 -4 -11 -8 -12 -19 -3 -8 7
-33 15 -56 19 -41 7 -41 7 -22 27 13 14 16 27 11 40 -4 11 -8 14 -8 8z m119
-164 c-7 -11 -14 -19 -16 -16 -7 7 7 37 17 37 6 0 5 -9 -1 -21z"/>
<path d="M1973 4844 c9 -12 17 -28 17 -37 0 -9 4 -17 8 -17 18 0 6 38 -18 55
-25 19 -25 19 -7 -1z"/>
<path d="M1385 4830 c28 -12 37 -12 30 0 -3 6 -16 10 -28 9 -21 0 -21 -1 -2
-9z"/>
<path d="M1360 4809 c0 -12 25 -22 41 -17 6 2 0 9 -15 16 -16 7 -26 8 -26 1z"/>
<path d="M1465 4810 c-8 -13 5 -13 25 0 13 8 13 10 -2 10 -9 0 -20 -4 -23 -10z"/>
<path d="M2061 4784 c0 -11 3 -14 6 -6 3 7 2 16 -1 19 -3 4 -6 -2 -5 -13z"/>
<path d="M1850 4670 c0 -5 5 -10 10 -10 6 0 10 5 10 10 0 6 -4 10 -10 10 -5 0
-10 -4 -10 -10z"/>
<path d="M4883 4506 c-28 -14 -72 -45 -97 -71 -38 -38 -46 -43 -46 -26 0 17
-6 21 -35 21 -35 0 -35 0 -35 45 l0 45 -202 -2 -203 -3 -3 -307 -2 -308 45 0
c45 0 45 0 45 -35 l0 -35 80 0 80 0 0 110 0 110 113 0 112 0 87 -85 c109 -105
149 -127 249 -133 157 -9 271 69 323 223 6 17 9 17 26 -10 28 -43 148 -153
199 -183 34 -20 61 -26 121 -30 109 -6 167 14 242 87 l58 57 0 -38 c0 -38 0
-38 40 -38 39 0 40 -1 40 -36 l0 -36 153 4 c132 3 157 6 192 25 93 50 135 122
143 249 6 108 -13 172 -73 244 -83 98 -99 113 -154 138 -48 22 -73 26 -197 30
l-143 5 -3 -112 -3 -111 -73 85 c-58 67 -86 91 -137 116 -61 30 -69 31 -153
27 -80 -4 -96 -8 -147 -39 -64 -37 -111 -95 -136 -165 l-16 -46 -23 33 c-13
19 -31 41 -40 49 -9 8 -33 36 -53 62 -24 30 -58 57 -99 77 -53 27 -72 31 -142
31 -64 0 -92 -5 -133 -24z m236 -5 c45 -17 121 -68 121 -82 0 -3 -26 3 -57 14
-44 14 -72 18 -118 13 -211 -22 -338 -232 -259 -431 7 -20 7 -20 -15 0 -21 18
-52 67 -51 80 2 65 -1 85 -16 85 -14 0 -16 8 -11 57 3 32 11 59 17 61 5 2 10
15 10 28 0 32 43 96 87 130 82 63 199 81 292 45z m709 -16 c28 -15 61 -39 74
-52 l23 -25 -45 19 c-30 12 -70 18 -120 18 -67 0 -82 -4 -140 -36 -75 -41
-131 -107 -152 -178 -17 -61 -15 -157 6 -206 l17 -39 -26 24 c-41 38 -63 98
-70 191 -6 76 -4 93 16 138 28 66 113 145 177 166 73 23 177 15 240 -20z
m-1168 -20 l0 -35 -155 0 -155 0 -2 -257 -3 -258 -32 -3 -33 -3 0 295 0 296
190 0 190 0 0 -35z m1703 15 c57 -21 137 -90 87 -75 -63 20 -103 25 -212 25
l-118 0 0 -261 0 -260 -32 3 c-30 3 -33 6 -36 40 -2 20 4 70 12 111 13 60 13
85 5 124 -7 26 -14 108 -16 181 l-5 132 131 0 c106 0 140 -4 184 -20z m-1662
-184 c2 -2 2 -29 1 -60 l-4 -56 -94 0 -94 0 0 60 0 60 93 0 c52 0 96 -2 98 -4z
m1673 -11 c51 -24 70 -68 70 -155 0 -110 -38 -163 -124 -172 l-35 -3 -3 173
-2 172 31 0 c17 0 45 -7 63 -15z m-1203 -16 c74 -37 101 -151 52 -218 -51 -67
-124 -87 -195 -52 -59 29 -81 63 -86 131 -2 42 2 62 17 88 45 70 133 92 212
51z m669 2 c129 -68 88 -268 -58 -288 -87 -12 -172 64 -172 154 0 117 125 190
230 134z"/>
<path d="M2704 4384 c-36 -54 -62 -210 -119 -709 -28 -243 -58 -422 -74 -438
-21 -21 -46 144 -97 628 -39 378 -71 516 -121 523 -42 6 -81 -90 -137 -345
-39 -176 -109 -588 -103 -606 2 -6 11 38 21 98 77 485 165 823 217 833 40 7
76 -182 114 -593 37 -406 52 -508 81 -552 46 -72 79 55 129 512 47 423 84 631
115 650 31 19 76 -154 135 -515 88 -538 110 -645 141 -671 42 -35 60 69 79
446 15 319 28 500 40 580 27 185 54 191 108 23 25 -75 44 -153 148 -603 76
-328 123 -455 162 -442 40 12 62 169 77 542 16 404 36 605 61 621 26 16 56
-37 95 -166 12 -41 23 -68 23 -59 1 9 -11 52 -25 95 -44 137 -82 175 -112 112
-17 -36 -39 -262 -47 -478 -3 -96 -8 -202 -10 -235 -2 -33 -7 -100 -10 -150
-8 -114 -22 -208 -37 -240 -39 -85 -83 41 -203 578 -96 431 -137 558 -182 565
-14 2 -26 -4 -33 -18 -27 -50 -51 -255 -65 -555 -22 -467 -38 -616 -65 -589
-16 16 -46 171 -105 533 -75 463 -103 590 -142 633 -22 25 -40 23 -59 -8z"/>
<path d="M8106 4387 c-40 -61 -74 -215 -141 -637 -68 -430 -97 -562 -116 -528
-19 34 -37 239 -54 638 -9 199 -33 414 -53 473 -13 39 -22 53 -38 55 -46 7
-87 -118 -189 -573 -36 -159 -76 -330 -89 -380 -47 -176 -82 -243 -107 -204
-23 38 -43 212 -55 489 -4 85 -10 205 -14 265 -7 87 -7 72 -4 -75 2 -102 6
-219 9 -260 14 -221 17 -260 26 -319 11 -69 33 -131 47 -131 50 0 91 122 192
570 94 418 148 600 179 600 37 0 56 -139 81 -600 29 -543 45 -633 95 -557 23
36 50 159 95 437 81 501 118 676 153 725 14 18 15 17 31 -13 31 -61 54 -197
106 -652 48 -415 68 -506 108 -498 39 7 56 103 97 538 53 562 90 702 153 578
44 -91 125 -442 178 -777 10 -62 20 -108 22 -102 5 15 -41 291 -83 506 -58
289 -106 426 -152 433 -57 8 -90 -147 -143 -683 -27 -272 -46 -405 -63 -447
l-14 -33 -11 35 c-20 60 -40 198 -77 520 -49 427 -75 572 -111 611 -23 25 -40
24 -58 -4z"/>
<path d="M7151 4354 c-31 -39 -101 -247 -88 -260 2 -3 12 25 21 60 23 91 54
171 77 198 18 22 20 22 33 5 13 -16 30 -116 39 -222 3 -36 4 -35 5 10 2 58
-14 168 -29 208 -14 34 -32 34 -58 1z"/>
<path d="M3801 4104 c0 -11 3 -14 6 -6 3 7 2 16 -1 19 -3 4 -6 -2 -5 -13z"/>
<path d="M3811 4064 c0 -11 3 -14 6 -6 3 7 2 16 -1 19 -3 4 -6 -2 -5 -13z"/>
<path d="M7046 4044 c-4 -20 -5 -38 -3 -40 3 -3 8 11 11 32 4 20 5 38 3 40 -3
3 -8 -11 -11 -32z"/>
<path d="M3822 4025 c0 -11 4 -31 8 -45 6 -20 8 -21 8 -5 0 11 -4 31 -8 45 -6
20 -8 21 -8 5z"/>
<path d="M7032 3970 c0 -14 2 -19 5 -12 2 6 2 18 0 25 -3 6 -5 1 -5 -13z"/>
<path d="M3842 3930 c0 -14 2 -19 5 -12 2 6 2 18 0 25 -3 6 -5 1 -5 -13z"/>
<path d="M7022 3920 c0 -14 2 -19 5 -12 2 6 2 18 0 25 -3 6 -5 1 -5 -13z"/>
<path d="M3852 3880 c0 -14 2 -19 5 -12 2 6 2 18 0 25 -3 6 -5 1 -5 -13z"/>
<path d="M7011 3864 c0 -11 3 -14 6 -6 3 7 2 16 -1 19 -3 4 -6 -2 -5 -13z"/>
<path d="M3862 3825 c0 -11 4 -33 8 -50 7 -27 8 -27 8 -5 0 14 -4 36 -8 50 -6
20 -8 21 -8 5z"/>
<path d="M7001 3814 c0 -11 3 -14 6 -6 3 7 2 16 -1 19 -3 4 -6 -2 -5 -13z"/>
<path d="M6992 3760 c0 -14 2 -19 5 -12 2 6 2 18 0 25 -3 6 -5 1 -5 -13z"/>
<path d="M4490 3460 l0 -310 45 0 c45 0 45 0 45 -35 l0 -35 80 0 80 0 0 120 0
120 45 0 45 0 0 -85 0 -85 45 0 c45 0 45 0 45 -35 l0 -35 80 0 80 0 0 300 0
300 -40 0 -40 0 0 45 0 45 -85 0 -85 0 0 -115 0 -115 -45 0 -45 0 0 69 0 70
-37 3 c-37 3 -38 4 -41 46 l-3 42 -85 0 -84 0 0 -310z m160 260 c0 -39 -1 -40
-35 -40 l-35 0 -2 -257 -3 -258 -35 0 -35 0 -3 285 c-1 157 0 290 3 297 3 9
27 13 75 13 l70 0 0 -40z m340 0 c0 -39 -1 -40 -35 -40 l-35 0 0 -110 0 -110
-90 0 -90 0 0 35 0 35 50 0 50 0 0 108 c0 60 3 112 7 115 3 4 37 7 75 7 l68 0
0 -40z m-75 -480 l0 -75 -35 0 -35 0 -3 64 c-4 84 0 93 40 89 l33 -3 0 -75z"/>
<path d="M5123 3553 c3 -147 9 -231 18 -258 17 -49 151 -188 203 -210 21 -9
66 -15 113 -15 91 0 145 20 186 69 47 57 57 114 57 337 l0 203 -32 3 c-31 3
-33 6 -36 46 l-3 42 -80 0 -79 0 0 -175 c0 -173 -11 -265 -33 -284 -7 -5 -24
-12 -40 -16 l-27 -7 0 195 0 196 -37 3 c-37 3 -38 4 -41 46 l-3 42 -86 0 -85
0 5 -217z m157 167 c0 -39 -1 -40 -36 -40 l-35 0 3 -222 c2 -123 7 -231 12
-241 6 -13 5 -16 -7 -12 -28 11 -67 101 -77 177 -11 84 -13 361 -3 371 3 4 37
7 75 7 l68 0 0 -40z m340 0 c0 -39 -1 -40 -35 -40 l-35 0 0 -184 c0 -204 -4
-235 -31 -265 -40 -43 -110 -33 -136 19 -12 23 -11 25 17 31 71 15 80 49 80
292 l0 187 70 0 70 0 0 -40z"/>
<path d="M5750 3461 l0 -311 40 0 c39 0 40 -1 40 -36 l0 -36 173 4 c156 3 176
5 215 26 92 49 119 166 56 242 -14 15 -39 32 -56 35 l-31 7 32 25 c40 32 61
72 61 120 0 38 -31 103 -50 103 -5 0 -21 18 -36 41 -43 68 -89 83 -281 87
l-163 4 0 -311z m355 275 c38 -16 75 -43 75 -55 0 -3 -79 -4 -175 -3 l-175 4
0 -262 0 -261 -32 3 -33 3 -3 285 c-1 157 0 291 3 299 8 21 284 10 340 -13z
m-11 -186 c21 -8 26 -16 26 -44 0 -43 -18 -57 -77 -59 l-48 -2 -3 58 -3 57 40
0 c22 0 51 -4 65 -10z m36 -240 c20 -20 26 -56 12 -76 -14 -22 -51 -34 -101
-34 l-51 0 0 65 0 65 60 0 c47 0 64 -4 80 -20z"/>
<path d="M3882 3715 c0 -16 2 -22 5 -12 2 9 2 23 0 30 -3 6 -5 -1 -5 -18z"/>
<path d="M6982 3700 c0 -14 2 -19 5 -12 2 6 2 18 0 25 -3 6 -5 1 -5 -13z"/>
<path d="M3892 3660 c0 -14 2 -19 5 -12 2 6 2 18 0 25 -3 6 -5 1 -5 -13z"/>
<path d="M6972 3645 c0 -16 2 -22 5 -12 2 9 2 23 0 30 -3 6 -5 -1 -5 -18z"/>
<path d="M3901 3594 c0 -11 3 -14 6 -6 3 7 2 16 -1 19 -3 4 -6 -2 -5 -13z"/>
<path d="M6962 3585 c0 -16 2 -22 5 -12 2 9 2 23 0 30 -3 6 -5 -1 -5 -18z"/>
<path d="M3912 3535 c0 -16 2 -22 5 -12 2 9 2 23 0 30 -3 6 -5 -1 -5 -18z"/>
<path d="M6951 3524 c0 -11 3 -14 6 -6 3 7 2 16 -1 19 -3 4 -6 -2 -5 -13z"/>
<path d="M3922 3470 c0 -14 2 -19 5 -12 2 6 2 18 0 25 -3 6 -5 1 -5 -13z"/>
<path d="M6942 3460 c0 -14 2 -19 5 -12 2 6 2 18 0 25 -3 6 -5 1 -5 -13z"/>
<path d="M8822 3400 c0 -19 2 -27 5 -17 2 9 2 25 0 35 -3 9 -5 1 -5 -18z"/>
<path d="M2042 3390 c0 -19 2 -27 5 -17 2 9 2 25 0 35 -3 9 -5 1 -5 -18z"/>
<path d="M3931 3404 c0 -11 3 -14 6 -6 3 7 2 16 -1 19 -3 4 -6 -2 -5 -13z"/>
<path d="M6932 3390 c0 -14 2 -19 5 -12 2 6 2 18 0 25 -3 6 -5 1 -5 -13z"/>
<path d="M3942 3340 c0 -14 2 -19 5 -12 2 6 2 18 0 25 -3 6 -5 1 -5 -13z"/>
<path d="M8832 3335 c0 -16 2 -22 5 -12 2 9 2 23 0 30 -3 6 -5 -1 -5 -18z"/>
<path d="M2032 3320 c0 -19 2 -27 5 -17 2 9 2 25 0 35 -3 9 -5 1 -5 -18z"/>
<path d="M6922 3330 c0 -14 2 -19 5 -12 2 6 2 18 0 25 -3 6 -5 1 -5 -13z"/>
<path d="M8842 3265 c0 -16 2 -22 5 -12 2 9 2 23 0 30 -3 6 -5 -1 -5 -18z"/>
<path d="M2022 3255 c0 -16 2 -22 5 -12 2 9 2 23 0 30 -3 6 -5 -1 -5 -18z"/>
<path d="M6911 3254 c0 -11 3 -14 6 -6 3 7 2 16 -1 19 -3 4 -6 -2 -5 -13z"/>
<path d="M8851 3194 c0 -11 3 -14 6 -6 3 7 2 16 -1 19 -3 4 -6 -2 -5 -13z"/>
<path d="M2012 3180 c0 -14 2 -19 5 -12 2 6 2 18 0 25 -3 6 -5 1 -5 -13z"/>
<path d="M4095 2936 c-64 -20 -99 -42 -138 -85 l-36 -40 -50 20 c-56 21 -136
25 -193 9 -100 -28 -180 -138 -180 -247 0 -117 58 -199 198 -280 104 -60 270
-147 259 -135 -5 5 -83 58 -172 116 -114 74 -172 118 -193 147 -107 148 -23
342 155 356 50 5 72 1 129 -22 64 -26 69 -26 79 -10 22 40 84 99 122 116 86
40 200 16 261 -53 60 -68 79 -172 48 -252 -5 -13 -4 -17 3 -13 18 11 36 106
30 159 -7 53 -40 119 -79 155 -58 54 -172 82 -243 59z"/>
<path d="M6690 2934 c-153 -41 -227 -194 -169 -349 12 -31 23 -55 25 -53 1 2
-3 22 -11 43 -18 51 -19 137 -1 179 20 48 75 107 121 127 49 23 133 24 183 3
42 -17 94 -64 123 -111 l20 -31 45 25 c30 17 67 27 109 31 56 4 72 1 119 -22
94 -46 142 -148 116 -246 -23 -86 -60 -123 -233 -236 -184 -120 -213 -144
-112 -89 292 158 328 184 369 268 61 121 19 264 -97 339 -49 31 -57 33 -142
33 -67 0 -98 -5 -122 -18 l-33 -17 -36 40 c-40 44 -119 86 -179 94 -22 3 -65
-2 -95 -10z"/>
<path d="M8895 2904 c-311 -48 -575 -190 -733 -394 -47 -60 -104 -193 -118
-273 -15 -86 -11 -265 6 -297 6 -10 10 -30 10 -43 0 -14 6 -30 14 -36 8 -7 18
-27 22 -44 3 -18 22 -49 40 -70 19 -20 34 -42 34 -47 0 -6 7 -10 16 -10 8 0
13 -4 10 -9 -3 -4 6 -13 21 -20 14 -6 23 -14 20 -17 -3 -3 20 -29 50 -57 31
-29 69 -67 86 -84 16 -18 34 -30 39 -27 4 3 6 10 3 15 -3 5 1 6 9 3 9 -3 16
-10 16 -14 0 -17 238 -106 355 -131 94 -21 507 -18 612 3 82 17 305 99 333
123 8 6 22 15 30 19 40 17 90 54 115 84 15 17 30 30 34 28 9 -6 47 36 43 48
-2 5 4 6 13 2 10 -3 13 -2 10 4 -4 6 6 23 22 39 73 73 150 217 172 319 34 161
-5 336 -106 483 -43 61 -156 169 -226 213 -90 58 -233 123 -329 150 -189 54
-431 70 -623 40z m780 -312 c-11 -106 -17 -61 -8 60 6 87 9 100 11 58 2 -30 1
-83 -3 -118z m-288 99 c-10 -28 -10 -34 6 -42 13 -8 15 -14 7 -29 -25 -46 15
-137 51 -114 12 7 11 0 -3 -31 -14 -30 -28 -32 -35 -5 -3 11 -24 34 -47 51
-29 23 -35 30 -18 26 30 -7 28 13 -5 37 -18 14 -30 16 -41 9 -11 -7 -21 -4
-34 9 -10 10 -24 18 -32 18 -12 0 -12 -5 1 -31 18 -36 5 -79 -24 -79 -26 0 -3
-17 37 -28 19 -5 34 -15 32 -21 -1 -7 2 -9 9 -6 16 11 99 -16 99 -31 0 -22
-40 -16 -62 9 -11 12 -17 16 -13 10 3 -7 1 -13 -5 -13 -6 0 -22 -12 -35 -26
l-25 -27 0 27 c0 20 5 26 23 27 21 1 21 1 -3 9 -14 4 -35 5 -48 2 -19 -4 -23
-1 -20 14 3 16 -3 19 -40 18 -31 -1 -42 2 -38 11 3 8 -6 12 -29 11 -18 0 -36
-4 -40 -7 -3 -4 -25 -2 -49 3 -48 10 -116 -10 -116 -34 0 -9 3 -10 8 -2 4 6
18 14 32 18 24 7 25 7 5 -9 -19 -16 -19 -16 10 -10 20 5 26 4 16 -3 -11 -8
-10 -14 4 -36 17 -26 17 -27 -5 -51 -13 -14 -19 -25 -13 -25 5 0 22 -11 37
-25 20 -18 32 -23 43 -16 19 10 56 -17 45 -33 -13 -21 -12 -45 1 -40 8 3 19
-5 25 -18 7 -15 11 -17 11 -8 1 9 14 23 29 32 27 16 29 16 41 -4 10 -17 15
-18 21 -7 5 7 11 11 12 9 30 -39 38 -63 27 -76 -9 -11 -9 -17 1 -29 9 -10 9
-15 1 -15 -6 0 -11 5 -11 12 0 6 -3 8 -7 5 -3 -4 -14 0 -24 9 -26 23 -35 12
-31 -41 2 -25 7 -44 10 -41 3 3 10 -1 16 -10 10 -13 16 -11 45 16 18 18 35 29
39 25 3 -3 -6 -16 -21 -29 -15 -13 -27 -29 -27 -36 0 -7 -8 -10 -20 -7 -11 3
-18 2 -15 -2 5 -9 -32 -51 -45 -51 -6 0 -10 -9 -10 -19 0 -27 -11 -52 -20 -46
-5 3 -6 15 -2 27 5 19 4 20 -10 8 -9 -8 -14 -20 -11 -26 2 -6 -7 -14 -21 -18
-16 -4 -23 -11 -20 -20 3 -8 0 -17 -6 -21 -8 -5 -6 -13 6 -27 16 -16 16 -21 4
-28 -11 -7 -17 -4 -22 10 -8 23 -44 44 -52 31 -4 -5 0 -11 6 -14 7 -2 10 -7 7
-11 -3 -4 -18 -2 -32 3 -26 10 -49 -2 -25 -12 8 -4 7 -6 -3 -6 -9 -1 -20 6
-23 15 -3 8 -11 12 -16 9 -6 -4 -10 -3 -9 2 3 14 -13 43 -23 43 -6 0 -8 -11
-6 -25 5 -25 -14 -36 -27 -15 -3 6 -17 10 -31 10 -17 0 -28 8 -35 28 -6 15
-13 21 -16 15 -3 -9 -18 -5 -51 13 -68 38 -74 45 -70 76 4 27 3 28 -30 22 -27
-5 -34 -4 -30 7 3 8 12 13 21 11 13 -2 14 1 4 22 -11 23 -13 24 -31 8 -18 -16
-19 -16 -13 7 3 14 1 31 -5 38 -9 11 -6 15 11 20 16 4 20 10 15 22 -16 38 -16
72 1 91 10 11 15 26 12 35 -7 18 1 45 14 45 5 0 28 19 52 43 23 24 57 49 75
56 17 8 32 17 32 20 0 4 17 16 38 26 l37 19 -53 8 c-69 10 -112 33 -112 58 0
31 72 76 162 100 45 12 92 29 105 37 28 19 165 30 248 22 33 -4 86 -7 117 -8
55 -1 58 1 73 30 21 39 29 33 12 -10z m106 -100 c2 -10 0 -26 -5 -35 -13 -23
-38 -3 -38 30 0 29 35 34 43 5z m-166 -186 c9 -10 23 -13 35 -9 14 4 18 2 14
-5 -14 -22 -76 -3 -76 23 0 10 11 6 27 -9z m-47 -39 c0 -3 -4 -8 -10 -11 -5
-3 -10 -1 -10 4 0 6 5 11 10 11 6 0 10 -2 10 -4z m-210 -20 c0 -2 -7 -9 -15
-16 -13 -11 -14 -10 -9 4 5 14 24 23 24 12z m40 -76 c0 -5 -5 -10 -11 -10 -5
0 -7 5 -4 10 3 6 8 10 11 10 2 0 4 -4 4 -10z m320 -195 c-7 -9 -15 -13 -17
-11 -7 7 7 26 19 26 6 0 6 -6 -2 -15z m-125 -56 c6 -19 0 -38 -9 -28 -10 12
-16 49 -7 49 5 0 13 -9 16 -21z m-77 -50 c4 -24 3 -24 -12 -4 -19 24 -20 38
-3 33 6 -3 13 -15 15 -29z m-980 -81 c30 -31 78 -74 108 -94 60 -41 69 -52 26
-30 -74 38 -223 187 -221 221 0 6 8 -1 17 -15 9 -14 41 -51 70 -82z m1088 67
c-11 -8 -25 -15 -30 -15 -6 0 -2 7 8 15 11 8 25 15 30 15 6 0 2 -7 -8 -15z
m-55 -11 c11 -14 10 -15 -11 -12 -13 1 -25 9 -28 16 -5 17 23 15 39 -4z m-96
-104 c3 -5 1 -10 -4 -10 -6 0 -11 5 -11 10 0 6 2 10 4 10 3 0 8 -4 11 -10z
m-740 -100 c3 -5 2 -10 -4 -10 -5 0 -13 5 -16 10 -3 6 -2 10 4 10 5 0 13 -4
16 -10z"/>
<path d="M9188 2540 c-30 -27 -31 -29 -11 -30 24 0 53 24 53 46 0 20 -5 18
-42 -16z"/>
<path d="M8860 2341 c0 -6 6 -12 13 -12 6 -1 22 -3 35 -4 12 -1 22 2 22 6 0 5
-6 9 -12 9 -7 0 -23 3 -35 6 -14 4 -23 2 -23 -5z"/>
<path d="M9153 2205 c0 -8 4 -12 9 -9 5 3 6 10 3 15 -9 13 -12 11 -12 -6z"/>
<path d="M9184 2179 c-3 -5 3 -12 13 -16 10 -3 22 -8 26 -11 5 -2 7 4 5 13 -3
19 -34 29 -44 14z"/>
<path d="M8710 2154 c0 -20 17 -26 24 -8 8 21 8 21 -9 21 -8 0 -15 -6 -15 -13z"/>
<path d="M8941 2119 c-15 -43 -14 -54 4 -39 9 7 14 19 11 26 -3 7 2 14 11 16
15 3 15 4 1 16 -14 11 -17 8 -27 -19z"/>
<path d="M9022 2080 c0 -14 2 -19 5 -12 2 6 2 18 0 25 -3 6 -5 1 -5 -13z"/>
<path d="M9051 2063 c-1 -7 -8 -13 -16 -13 -9 0 -18 -6 -21 -13 -3 -8 -19 -14
-37 -15 -17 0 -36 -7 -42 -15 -5 -7 -16 -12 -22 -10 -7 3 -13 0 -13 -6 0 -6
-1 -14 -2 -17 -2 -4 12 -8 30 -10 23 -3 34 1 39 12 4 11 17 15 47 13 78 -4 96
0 96 19 0 26 11 34 27 21 10 -9 13 -8 13 4 0 10 -13 20 -32 25 -39 11 -45 8
-28 -13 7 -8 8 -15 2 -15 -5 0 -17 10 -25 23 -9 12 -16 16 -16 10z m-68 -63
c-13 -5 -23 -14 -23 -20 0 -5 -4 -10 -10 -10 -14 0 -12 27 3 33 6 3 21 5 32 6
18 0 18 -1 -2 -9z"/>
<path d="M8930 2051 c0 -6 4 -13 10 -16 6 -3 7 1 4 9 -7 18 -14 21 -14 7z"/>
<path d="M8676 2026 c-3 -14 -3 -32 0 -40 7 -17 34 -22 34 -6 0 6 -5 10 -11
10 -7 0 -9 11 -5 30 7 36 -9 41 -18 6z"/>
<path d="M8735 2030 c-3 -5 3 -10 14 -10 12 0 21 5 21 10 0 6 -6 10 -14 10 -8
0 -18 -4 -21 -10z"/>
<path d="M9091 1959 c0 -9 -8 -19 -16 -23 -18 -6 -20 -36 -3 -36 6 0 8 3 5 7
-4 3 0 11 9 18 9 6 14 20 11 31 -3 14 -5 15 -6 3z"/>
<path d="M8996 1941 c-3 -4 -10 -21 -16 -37 l-10 -29 20 25 c11 14 20 31 20
38 0 14 -6 16 -14 3z"/>
<path d="M8870 1923 c0 -7 7 -13 15 -13 8 0 15 6 15 13 0 8 -7 14 -15 14 -8 0
-15 -6 -15 -14z"/>
<path d="M9015 1889 c-4 -12 -3 -25 2 -30 6 -6 10 -5 10 3 0 7 4 21 8 31 4 10
3 17 -3 17 -6 0 -14 -9 -17 -21z"/>
<path d="M8916 1847 c3 -10 9 -15 12 -12 3 3 0 11 -7 18 -10 9 -11 8 -5 -6z"/>
<path d="M8960 1850 c0 -5 5 -10 11 -10 5 0 7 5 4 10 -3 6 -8 10 -11 10 -2 0
-4 -4 -4 -10z"/>
<path d="M1490 2894 c-241 -31 -463 -118 -622 -245 -87 -69 -93 -79 -74 -122
22 -53 92 -95 196 -117 l45 -9 -55 5 c-101 10 -200 71 -200 123 0 24 -1 24
-40 -14 -48 -47 -103 -149 -124 -231 -18 -72 -21 -211 -5 -269 23 -82 126
-199 238 -269 97 -62 292 -146 335 -146 8 0 17 -4 20 -9 14 -21 -170 35 -279
86 -61 28 -164 102 -212 151 -24 24 -43 40 -43 35 0 -33 157 -212 230 -262 19
-14 42 -31 50 -38 26 -24 90 -63 90 -55 0 4 4 2 8 -4 10 -16 74 -46 182 -86
171 -63 228 -72 500 -72 136 -1 184 3 274 22 60 13 116 28 125 32 9 5 43 18
76 30 33 12 89 38 125 58 36 20 77 43 92 51 15 7 25 17 23 21 -3 5 3 11 13 14
27 9 113 93 158 156 43 59 64 101 84 165 7 22 17 51 22 65 21 54 1 310 -24
310 -5 0 -8 6 -7 13 5 31 -57 150 -110 209 -82 92 -186 160 -346 229 -49 21
-82 39 -73 39 9 0 29 -5 44 -10 15 -6 29 -8 32 -6 3 3 -8 10 -24 16 -23 9 -25
13 -14 21 11 7 7 8 -13 3 -20 -5 -27 -3 -25 7 4 15 -130 63 -235 85 -71 14
-368 26 -437 18z m-160 -144 c93 -26 170 -103 151 -152 -10 -22 -10 -22 -10 5
-2 56 -52 100 -156 138 -54 19 -43 25 15 9z m610 -5 c59 -11 100 -28 100 -42
0 -8 16 -23 35 -34 35 -21 44 -42 25 -54 -6 -3 -22 7 -36 24 -21 25 -34 31
-64 31 -21 0 -42 -5 -45 -10 -4 -7 -12 -7 -25 0 -27 15 -40 12 -40 -7 0 -10
-18 -37 -40 -61 -22 -24 -40 -51 -40 -60 0 -10 -6 -24 -12 -31 -10 -10 -10
-15 -2 -18 13 -5 9 -33 -12 -80 -17 -38 -54 -46 -54 -12 0 13 -4 18 -12 13
-20 -12 -38 25 -27 54 6 15 15 29 20 33 5 3 12 23 14 45 6 71 44 165 77 191
19 15 71 32 88 28 8 -2 31 -6 50 -10z m215 -55 c-3 -5 -11 -10 -16 -10 -6 0
-7 5 -4 10 3 6 11 10 16 10 6 0 7 -4 4 -10z m110 -50 c3 -5 1 -10 -4 -10 -6 0
-11 5 -11 10 0 6 2 10 4 10 3 0 8 -4 11 -10z m105 -11 c0 -14 -17 -10 -23 5
-4 10 -1 13 9 9 7 -3 14 -9 14 -14z m-940 -24 c7 -8 17 -12 23 -8 6 4 7 1 2
-7 -4 -7 -2 -15 4 -19 8 -5 3 -18 -17 -41 -24 -27 -32 -31 -48 -22 -10 6 -18
13 -16 16 7 17 -3 28 -45 50 l-48 25 52 -2 c39 -1 53 -6 53 -17 0 -13 1 -13
10 0 9 13 11 13 20 0 8 -13 10 -12 10 3 0 10 -10 22 -22 27 -16 6 -18 9 -7 9
9 1 22 -6 29 -14z m820 -38 c79 -30 159 -79 219 -133 49 -44 101 -112 105
-138 1 -6 5 -17 10 -24 4 -7 5 -16 1 -20 -4 -4 -10 -1 -12 6 -3 7 -16 25 -30
40 l-25 27 6 -32 c9 -55 -15 -60 -65 -13 -23 22 -40 42 -38 44 2 2 23 1 47 -4
61 -11 63 6 9 56 -26 24 -47 47 -47 51 0 5 -12 10 -27 11 -15 1 -38 13 -51 27
-23 25 -39 34 -27 15 8 -13 -15 -35 -35 -35 -8 0 -19 6 -23 13 -4 6 -14 12
-21 12 -7 0 -25 14 -41 30 -16 17 -33 30 -38 30 -17 0 -47 42 -47 67 0 23 0
23 38 7 20 -9 62 -25 92 -37z m207 11 c18 -13 33 -26 33 -31 0 -4 -18 5 -40
19 -22 15 -40 28 -40 30 0 9 16 3 47 -18z m-383 -39 c-3 -5 0 -9 5 -9 26 0 7
-31 -34 -57 -36 -22 -45 -32 -40 -49 3 -13 -3 -28 -15 -39 -32 -29 -25 -44 18
-39 20 3 48 10 62 15 32 11 69 8 67 -6 -1 -5 12 -11 29 -13 57 -6 152 -132 99
-132 -19 0 -19 -19 0 -26 8 -4 13 -9 11 -13 -3 -4 3 -22 11 -40 14 -28 14 -34
2 -42 -21 -13 -44 -6 -43 14 1 9 -2 17 -6 17 -5 0 -6 10 -3 23 3 12 2 19 -2
15 -10 -9 -51 33 -60 61 -4 14 -15 19 -42 19 -34 0 -57 17 -47 34 9 14 -14 9
-30 -7 -20 -21 -29 -19 -23 5 3 11 1 20 -4 20 -5 0 -9 -7 -9 -15 0 -14 -11
-19 -26 -12 -3 1 -10 -6 -15 -15 -6 -10 -19 -18 -29 -18 -11 0 -25 -10 -31
-22 -7 -13 -16 -26 -22 -29 -11 -8 1 -32 12 -24 5 2 16 -4 26 -15 12 -13 26
-18 39 -15 12 3 15 2 8 -1 -9 -4 -7 -12 8 -31 11 -14 20 -35 20 -46 0 -20 0
-21 -15 -1 -13 18 -14 16 -15 -22 0 -25 6 -47 15 -54 8 -7 13 -16 10 -20 -3
-5 -2 -10 2 -13 5 -2 3 -3 -4 -1 -6 1 -19 -3 -29 -10 -19 -15 -25 -100 -10
-149 8 -27 8 -28 -12 -16 -26 16 -41 126 -24 172 13 33 3 49 -38 62 -29 9 -50
29 -50 47 0 10 -2 10 -9 -1 -6 -9 -16 -11 -27 -6 -13 5 -15 9 -6 12 16 6 16
26 0 21 -7 -3 -21 5 -30 16 -17 20 -18 20 -11 1 7 -19 6 -19 -20 -2 -33 22
-53 22 -62 0 -6 -17 -7 -17 -17 0 -7 14 -6 23 7 38 24 26 124 62 155 55 40 -7
49 4 47 62 -2 42 -5 52 -19 52 -10 0 -18 7 -18 15 0 8 9 15 20 15 21 0 40 27
40 57 0 10 20 41 45 68 25 28 45 56 45 63 0 18 58 51 81 45 10 -3 16 -9 13
-14z m-774 -14 c-7 -8 -24 -15 -39 -15 l-26 1 30 14 c40 18 50 18 35 0z m1292
-80 c6 -11 -4 -4 -23 15 -58 61 -76 87 -30 45 23 -22 47 -49 53 -60z m-929 68
c-18 -2 -48 -2 -65 0 -18 2 -4 4 32 4 36 0 50 -2 33 -4z m-107 -10 c-11 -11
-46 -14 -46 -3 0 6 12 10 27 10 14 0 23 -3 19 -7z m45 -36 c-5 -5 -17 -5 -28
2 -16 9 -15 10 9 9 16 -2 24 -6 19 -11z m-51 -1 c0 -11 -19 -15 -25 -6 -3 5 1
10 9 10 9 0 16 -2 16 -4z m-361 -15 c8 -5 9 -11 3 -15 -13 -8 -42 3 -42 15 0
11 21 11 39 0z m-65 -27 c3 -8 2 -12 -4 -9 -6 3 -10 10 -10 16 0 14 7 11 14
-7z m1246 -21 c0 -8 5 -11 12 -7 7 4 8 3 4 -4 -4 -7 -16 -12 -27 -12 -15 0
-19 7 -19 31 0 27 2 30 15 19 8 -7 15 -19 15 -27z m-193 -28 c9 -25 -4 -29
-17 -6 -7 15 -7 21 0 21 6 0 13 -7 17 -15z m-1295 -147 c-7 -7 -12 -8 -12 -2
0 14 12 26 19 19 2 -3 -1 -11 -7 -17z m28 -94 c-10 -45 -6 -118 10 -160 6 -16
10 -30 8 -30 -2 -1 9 -16 25 -35 15 -18 27 -38 27 -43 0 -17 92 -96 111 -96
12 0 19 12 24 41 6 33 3 45 -14 63 -12 12 -21 26 -21 31 0 5 9 -1 20 -13 12
-12 26 -22 33 -22 15 1 65 29 52 30 -5 0 1 6 14 13 13 6 29 21 35 31 17 31 29
45 60 74 15 15 40 39 56 53 15 14 56 41 92 58 56 28 68 31 91 20 14 -6 31 -25
36 -41 6 -16 6 -26 1 -23 -5 3 -6 -9 -3 -28 4 -29 2 -35 -17 -40 -12 -3 -19
-10 -15 -16 3 -6 2 -11 -3 -11 -6 0 -8 -9 -5 -20 3 -12 0 -20 -6 -20 -7 0 -10
4 -7 8 3 5 -1 9 -8 9 -8 0 -11 -9 -8 -25 3 -17 -3 -31 -21 -47 -13 -13 -28
-21 -31 -18 -3 4 -15 -2 -27 -13 -12 -11 -32 -17 -48 -16 -29 3 -54 -18 -65
-55 -8 -26 -32 -29 -60 -8 -17 13 -22 13 -38 -2 -23 -21 -24 -70 0 -78 9 -3
25 -17 36 -31 15 -22 16 -28 5 -36 -9 -6 -3 -7 19 -3 31 6 59 0 176 -41 23 -8
45 -10 55 -5 24 13 53 0 41 -19 -7 -11 -10 -11 -10 -2 0 10 -11 12 -46 6 -34
-5 -49 -3 -56 7 -6 9 -11 10 -14 3 -10 -23 -290 37 -362 78 -43 24 -97 65
-131 99 -34 34 -81 102 -81 118 0 7 -3 10 -7 8 -9 -6 -19 143 -13 203 l2 25 8
-25 c4 -14 9 -43 9 -65 1 -22 8 -51 17 -65 15 -25 15 -25 11 13 -3 36 6 50 16
25 4 -10 6 -10 6 0 1 7 -6 15 -14 18 -17 7 -21 69 -5 79 5 3 7 12 3 20 -3 8
-1 15 4 15 6 0 15 12 22 26 16 37 22 26 11 -22z m107 -56 c-3 -8 -6 -5 -6 6
-1 11 2 17 5 13 3 -3 4 -12 1 -19z m-238 -106 c6 -29 18 -66 26 -81 8 -16 12
-31 10 -33 -3 -3 6 -15 20 -28 14 -13 25 -29 25 -36 0 -7 21 -29 46 -49 26
-19 44 -35 40 -35 -14 0 -85 50 -99 70 -7 11 -17 17 -22 12 -5 -4 -5 -2 -2 5
4 6 0 19 -9 27 -9 9 -17 23 -18 30 -1 8 -7 20 -13 27 -13 16 -33 108 -33 147
1 38 15 11 29 -56z m253 63 c0 -8 1 -21 2 -27 1 -7 8 -21 16 -31 8 -10 13 -19
10 -21 -3 -2 1 -10 8 -19 7 -8 9 -18 4 -21 -5 -3 -19 12 -31 34 -24 42 -35
100 -20 100 5 0 10 -7 11 -15z m1124 -6 c3 -5 1 -9 -5 -9 -17 0 -41 12 -41 20
0 10 38 1 46 -11z m-1036 7 c0 -2 3 -11 6 -20 4 -11 1 -16 -11 -16 -9 0 -13 5
-9 11 3 6 0 15 -7 20 -11 7 -10 9 4 9 9 0 17 -2 17 -4z m1077 -32 c-3 -3 -12
-4 -19 -1 -8 3 -5 6 6 6 11 1 17 -2 13 -5z m-1197 -79 c19 -36 7 -40 -14 -5
-9 17 -13 30 -8 30 5 0 15 -11 22 -25z m907 -102 c-3 -10 -5 -4 -5 12 0 17 2
24 5 18 2 -7 2 -21 0 -30z m75 15 c-7 -7 -12 -8 -12 -2 0 6 3 14 7 17 3 4 9 5
12 2 2 -3 -1 -11 -7 -17z m557 -4 c-13 -14 -33 -30 -44 -36 -11 -6 -2 6 20 25
47 43 58 48 24 11z m-542 -36 c-3 -7 -5 -2 -5 12 0 14 2 19 5 13 2 -7 2 -19 0
-25z m473 -12 c0 -3 -15 -14 -32 -26 l-33 -22 30 26 c31 27 35 29 35 22z
m-559 -108 c0 -9 2 -10 5 -1 4 8 14 9 37 1 46 -14 59 -16 85 -17 15 -1 22 -7
22 -21 0 -26 -24 -26 -92 1 -54 21 -94 49 -70 49 7 0 12 -6 13 -12z m534 -38
c-14 -23 -205 -136 -205 -122 0 16 107 93 157 112 58 23 56 22 48 10z m-1112
-132 c46 -27 117 -91 117 -106 0 -12 -10 -5 -33 20 -17 20 -51 49 -74 63 -40
26 -50 35 -38 35 3 0 15 -6 28 -12z"/>
<path d="M2200 2535 c0 -17 18 -19 38 -6 11 7 10 10 -3 15 -26 10 -35 7 -35
-9z"/>
<path d="M2030 2521 c0 -17 18 -21 24 -6 3 9 0 15 -9 15 -8 0 -15 -4 -15 -9z"/>
<path d="M892 1926 c1 -20 7 -36 13 -36 7 0 10 12 7 30 -6 44 -23 48 -20 6z"/>
<path d="M1368 1593 c7 -3 16 -2 19 1 4 3 -2 6 -13 5 -11 0 -14 -3 -6 -6z"/>
<path d="M2318 2705 c40 -19 87 -44 105 -55 29 -20 30 -20 9 -2 -34 31 -148
92 -169 91 -10 0 15 -16 55 -34z"/>
<path d="M5208 2655 c-32 -28 -36 -45 -10 -46 14 0 13 -2 -5 -11 -12 -6 -29
-8 -38 -4 -13 5 -14 10 -5 27 7 11 10 22 8 23 -42 25 -57 28 -72 14 -8 -9 -25
-13 -39 -11 -14 3 -28 0 -31 -6 -4 -6 -18 -11 -31 -11 -37 0 -94 -30 -88 -46
3 -8 13 -14 23 -14 25 0 50 -10 50 -21 0 -5 -9 -18 -20 -29 -14 -14 -20 -16
-20 -6 0 20 -32 45 -37 29 -7 -20 -31 -15 -38 7 -3 11 -10 20 -14 20 -5 0 -20
-9 -34 -20 -14 -11 -28 -20 -32 -20 -19 0 -140 -109 -175 -158 l-40 -56 48
-45 c27 -26 65 -59 85 -74 32 -24 37 -34 37 -67 0 -38 26 -80 48 -80 14 0 52
-37 45 -43 -11 -12 31 -49 77 -69 42 -18 93 -55 254 -183 37 -30 77 -55 87
-55 10 0 18 -6 16 -12 -1 -7 7 -13 18 -13 11 0 36 -10 55 -23 19 -12 39 -22
43 -22 5 0 6 -4 2 -10 -16 -26 96 -91 197 -115 35 -8 86 -15 113 -16 l50 -1
-31 -13 c-36 -16 -193 -45 -245 -45 -30 0 -52 14 -155 102 -289 246 -502 436
-667 598 -54 52 -103 95 -109 95 -24 0 -39 -87 -35 -195 9 -192 54 -304 168
-419 54 -55 202 -161 224 -161 7 0 50 -15 96 -34 255 -102 634 -83 894 44 80
40 198 136 263 215 30 36 66 108 83 163 12 40 11 44 -9 58 -12 8 -22 24 -22
34 0 34 -22 69 -57 90 -19 11 -31 25 -28 30 12 19 -9 10 -36 -16 -26 -25 -26
-25 -32 -4 -4 16 1 24 19 32 33 15 34 65 2 70 -15 2 -23 10 -24 23 -1 11 -2
37 -3 58 -1 30 -5 37 -22 37 -11 0 -18 4 -15 9 9 14 -17 19 -30 7 -8 -8 -7
-14 3 -25 12 -11 12 -15 1 -22 -11 -7 -10 -11 1 -18 12 -8 12 -13 -3 -36 -15
-23 -23 -26 -48 -21 -24 5 -29 3 -24 -9 6 -16 -9 -21 -18 -6 -3 5 -15 7 -26 4
-13 -3 -20 0 -20 8 0 11 -2 11 -10 -1 -8 -13 -10 -12 -10 3 0 9 6 17 14 17 20
0 29 30 11 36 -19 8 -9 24 14 24 10 0 28 11 41 25 l24 26 -19 36 c-11 20 -33
45 -50 55 -16 10 -26 18 -21 18 4 0 0 12 -9 28 -18 27 -18 27 2 9 11 -9 23
-14 27 -10 4 4 12 0 17 -9 6 -11 16 -15 26 -11 10 4 14 2 9 -5 -3 -6 -2 -13 4
-17 5 -3 10 -2 10 3 0 10 28 13 50 5 12 -4 11 -7 -5 -13 -18 -8 -18 -9 -2 -9
10 -1 16 -5 13 -10 -5 -8 199 -126 207 -119 2 1 11 -5 21 -14 24 -25 39 -23
30 5 -29 97 -138 238 -222 287 -37 22 -37 22 -18 1 15 -16 16 -21 5 -21 -8 0
-21 6 -28 13 -11 10 -13 9 -8 -5 7 -19 -8 -25 -18 -8 -12 20 -37 9 -48 -20 -9
-24 -16 -29 -37 -25 -20 4 -21 4 -6 -3 17 -8 18 -9 3 -15 -11 -4 -22 2 -32 16
-10 15 -15 17 -16 7 0 -10 -3 -8 -8 5 -10 24 5 46 25 38 9 -3 14 2 14 15 0 23
18 33 52 26 21 -4 21 -4 3 5 -31 13 -211 9 -227 -6 -9 -10 -9 -13 0 -13 7 0
12 -9 12 -19 0 -22 -30 -35 -60 -26 -11 4 -20 2 -20 -4 0 -6 7 -11 15 -11 8 0
15 -7 15 -16 0 -12 -5 -14 -17 -9 -10 4 -30 10 -44 12 -20 4 -25 10 -22 23 3
10 0 27 -6 38 -9 16 -7 23 12 35 20 13 21 16 8 41 l-14 26 -18 -29 c-25 -41
-31 -43 -91 -27 -51 13 -53 15 -50 45 3 29 0 32 -54 56 -62 28 -74 30 -74 15
0 -5 6 -10 14 -10 8 0 17 -7 20 -16 4 -9 13 -14 21 -10 19 7 30 -17 19 -41 -4
-10 -7 -21 -6 -25 2 -11 -72 4 -83 17 -5 6 -16 21 -23 34 -12 20 -11 26 9 47
29 31 22 30 -13 -1z m-98 -72 c0 -11 52 -34 59 -27 3 3 -1 10 -9 15 -12 9 -12
10 3 5 10 -3 25 -6 34 -6 9 0 13 -6 10 -15 -7 -17 3 -24 40 -31 39 -7 40 -12
13 -37 -17 -16 -20 -17 -9 -3 13 18 13 19 -8 7 -18 -9 -27 -9 -45 2 -13 8 -44
26 -70 41 -32 18 -45 31 -42 41 6 15 24 21 24 8z m278 -75 c2 -11 -3 -18 -12
-18 -9 0 -16 -7 -16 -15 0 -8 -9 -19 -20 -25 -16 -9 -20 -8 -20 5 0 8 -4 15
-10 15 -18 0 -11 48 8 53 34 10 67 2 70 -15z m432 8 c0 -3 -4 -8 -10 -11 -5
-3 -10 -1 -10 4 0 6 5 11 10 11 6 0 10 -2 10 -4z m-67 -28 c15 -12 52 -98 42
-98 -2 0 -11 7 -19 16 -15 14 -16 13 -17 -8 l0 -23 -9 23 c-7 16 -18 22 -39
22 -38 0 -42 8 -26 48 15 34 39 41 68 20z m-903 -7 c0 -9 -24 -21 -42 -21 -6
0 -6 6 2 15 14 16 40 20 40 6z m628 -8 c2 -9 -7 -13 -28 -13 -28 0 -31 2 -20
15 15 18 41 16 48 -2z m144 -70 c-9 -4 -6 -14 13 -39 23 -30 24 -35 10 -41
-10 -3 -20 -2 -24 3 -3 5 -21 9 -38 10 -24 1 -33 -4 -35 -15 0 -9 -2 -21 -2
-28 -1 -6 -5 -15 -10 -20 -5 -5 -6 -2 -1 6 6 11 4 13 -10 7 -14 -5 -16 -4 -7
7 7 8 9 17 5 20 -3 4 -1 7 6 7 9 0 9 5 1 21 -10 18 -9 20 12 18 35 -3 59 11
53 30 -4 12 1 17 18 18 12 0 16 -1 9 -4z m58 -13 c0 -5 -5 -10 -11 -10 -5 0
-7 5 -4 10 3 6 8 10 11 10 2 0 4 -4 4 -10z m-318 -22 c-9 -9 -15 -9 -24 0 -9
9 -7 12 12 12 19 0 21 -3 12 -12z m113 -20 c5 4 5 2 1 -5 -8 -14 -36 -6 -36 9
0 7 5 6 13 -1 8 -6 18 -7 22 -3z m-538 -4 c-3 -3 -12 -4 -19 -1 -8 3 -5 6 6 6
11 1 17 -2 13 -5z m60 -52 c14 -8 12 -12 -15 -26 -39 -20 -55 -20 -98 0 -29
14 -32 19 -22 31 28 34 67 32 135 -5z m523 -32 c0 -5 -5 -10 -11 -10 -5 0 -7
5 -4 10 3 6 8 10 11 10 2 0 4 -4 4 -10z m-490 -50 c0 -5 -6 -10 -14 -10 -8 0
-18 5 -21 10 -3 6 3 10 14 10 12 0 21 -4 21 -10z m-20 -30 c13 -9 13 -10 0
-10 -8 0 -22 5 -30 10 -13 9 -13 10 0 10 8 0 22 -5 30 -10z m620 -6 c0 -8 -5
-12 -10 -9 -6 4 -8 11 -5 16 9 14 15 11 15 -7z m-175 -61 l59 -47 -29 -12
c-36 -16 -55 -17 -55 -5 0 5 -20 22 -45 38 -54 34 -62 51 -32 63 35 14 39 13
102 -37z m549 -27 c-4 -32 -14 -48 -14 -23 0 10 -6 17 -12 17 -23 0 -39 -16
-32 -33 5 -15 -2 -17 -50 -17 -61 0 -73 15 -39 52 15 17 15 18 -8 18 -13 0
-31 5 -39 10 -10 7 19 9 91 7 l107 -2 -4 -29z m-720 -42 c3 -8 2 -12 -4 -9 -6
3 -10 10 -10 16 0 14 7 11 14 -7z m441 -33 c0 -40 -14 -52 -49 -43 l-28 8 36
32 c20 18 38 32 39 32 1 0 2 -13 2 -29z m-567 1 c2 -7 -5 -12 -17 -12 -14 0
-19 5 -14 15 6 17 25 15 31 -3z m79 -19 c6 -16 -35 -23 -41 -8 -3 8 0 16 7 19
16 6 30 2 34 -11z m242 7 c29 15 26 2 -4 -22 -14 -11 -25 -26 -25 -34 0 -8 -4
-14 -10 -14 -19 0 -59 23 -65 38 -8 22 2 26 21 8 21 -21 39 -15 38 12 0 16 3
19 12 11 9 -7 19 -7 33 1z m-359 -24 c0 -3 -4 -8 -10 -11 -5 -3 -10 -1 -10 4
0 6 5 11 10 11 6 0 10 -2 10 -4z m103 -26 c-6 -21 -28 -27 -38 -10 -3 6 4 14
17 19 13 6 24 10 25 10 0 1 -1 -8 -4 -19z m98 10 c23 -13 25 -33 4 -50 -19
-16 -65 2 -65 25 0 8 -6 15 -12 16 -15 1 21 17 40 18 7 1 22 -4 33 -9z m239
-15 c0 -8 -4 -15 -10 -15 -5 0 -10 7 -10 15 0 8 5 15 10 15 6 0 10 -7 10 -15z
m-65 -15 c3 -5 1 -10 -4 -10 -6 0 -11 5 -11 10 0 6 2 10 4 10 3 0 8 -4 11 -10z
m-235 -26 c0 -8 6 -17 14 -20 8 -3 17 -11 19 -18 8 -19 -29 -13 -54 10 -12 10
-29 18 -39 16 -10 -2 -20 5 -24 14 -5 14 -2 16 23 11 17 -4 33 -2 36 3 8 14
25 3 25 -16z m840 16 c0 -5 -2 -10 -4 -10 -3 0 -8 5 -11 10 -3 6 -1 10 4 10 6
0 11 -4 11 -10z m-382 -24 c3 -13 -1 -17 -14 -14 -11 2 -20 11 -22 22 -3 13 1
17 14 14 11 -2 20 -11 22 -22z m-358 -76 c0 -5 -2 -10 -4 -10 -3 0 -8 5 -11
10 -3 6 -1 10 4 10 6 0 11 -4 11 -10z m725 -130 c-73 -74 -242 -180 -287 -180
-5 0 5 20 21 44 30 43 78 76 151 106 19 7 57 29 85 47 73 49 87 41 30 -17z
m-355 20 c8 -5 12 -12 8 -15 -9 -9 -48 4 -48 16 0 12 21 11 40 -1z m-200 -20
c0 -5 -4 -10 -9 -10 -6 0 -13 5 -16 10 -3 6 1 10 9 10 9 0 16 -4 16 -10z m-80
-67 c0 -18 -30 -16 -52 3 -16 16 -17 18 -1 29 13 10 20 9 35 -4 10 -8 18 -21
18 -28z"/>
<path d="M5560 2591 c0 -6 5 -13 10 -16 6 -3 10 1 10 9 0 9 -4 16 -10 16 -5 0
-10 -4 -10 -9z"/>
<path d="M5590 2589 c0 -5 5 -7 10 -4 6 3 10 8 10 11 0 2 -4 4 -10 4 -5 0 -10
-5 -10 -11z"/>
<path d="M5916 2542 c-3 -4 4 -9 15 -9 23 -2 25 3 4 10 -8 4 -16 3 -19 -1z"/>
<path d="M3553 2079 c14 -8 22 -8 30 0 8 8 3 11 -18 11 -26 -1 -28 -2 -12 -11z"/>
<path d="M3640 2080 c0 -5 12 -10 28 -10 21 0 24 2 12 10 -20 13 -40 13 -40 0z"/>
<path d="M3463 2073 c9 -2 23 -2 30 0 6 3 -1 5 -18 5 -16 0 -22 -2 -12 -5z"/>
<path d="M3360 2060 c-12 -8 -9 -10 13 -10 15 0 27 5 27 10 0 13 -20 13 -40 0z"/>
<path d="M3745 2060 c27 -12 35 -12 35 0 0 6 -12 10 -27 9 -25 0 -26 -1 -8 -9z"/>
<path d="M7510 2050 c0 -6 12 -10 27 -10 29 0 24 12 -7 17 -11 2 -20 -2 -20
-7z"/>
<path d="M3830 2041 c0 -5 9 -11 20 -14 24 -6 27 8 4 17 -21 8 -24 8 -24 -3z"/>
<path d="M7423 2043 c9 -2 23 -2 30 0 6 3 -1 5 -18 5 -16 0 -22 -2 -12 -5z"/>
<path d="M7600 2042 c0 -4 11 -9 25 -10 14 -1 25 3 25 8 0 6 -11 10 -25 10
-14 0 -25 -4 -25 -8z"/>
<path d="M3270 2030 c-12 -8 -11 -10 7 -10 12 0 25 5 28 10 8 13 -15 13 -35 0z"/>
<path d="M7320 2030 c0 -5 6 -10 14 -10 8 0 18 5 21 10 3 6 -3 10 -14 10 -12
0 -21 -4 -21 -10z"/>
<path d="M6220 2015 c0 -8 5 -15 10 -15 6 0 10 7 10 15 0 8 -4 15 -10 15 -5 0
-10 -7 -10 -15z"/>
<path d="M7710 2020 c19 -13 30 -13 30 0 0 6 -10 10 -22 10 -19 0 -20 -2 -8
-10z"/>
<path d="M10431 2014 c-7 -8 -11 -17 -8 -20 2 -2 10 2 17 11 7 8 20 15 29 15
14 0 14 -2 1 -11 -13 -9 -12 -10 3 -5 11 3 17 0 17 -10 0 -9 -5 -12 -12 -8 -7
4 -8 3 -4 -5 4 -6 12 -8 18 -5 8 5 9 1 5 -10 -4 -10 -7 -19 -7 -22 0 -2 -7 -1
-15 2 -9 4 -15 0 -16 -7 0 -8 -4 -5 -9 6 -8 18 -9 18 -9 2 -1 -30 29 -32 57
-4 l26 27 -20 27 c-24 33 -53 39 -73 17z"/>
<path d="M7225 2010 c-3 -5 3 -10 14 -10 11 0 23 5 26 10 3 6 -3 10 -14 10
-11 0 -23 -4 -26 -10z"/>
<path d="M3191 1996 c-13 -7 -19 -16 -14 -19 11 -7 51 18 43 26 -3 3 -16 0
-29 -7z"/>
<path d="M3934 1995 c21 -16 32 -13 21 4 -3 6 -14 11 -23 11 -15 -1 -15 -2 2
-15z"/>
<path d="M7790 1999 c0 -12 25 -22 41 -17 6 2 0 9 -15 16 -16 7 -26 8 -26 1z"/>
<path d="M7148 1993 c-10 -2 -18 -9 -18 -15 0 -5 7 -7 16 -4 9 3 20 6 25 6 5
0 9 5 9 10 0 10 -3 11 -32 3z"/>
<path d="M10435 1981 c-3 -6 -11 -9 -16 -6 -5 4 -9 -1 -9 -9 0 -8 5 -18 10
-21 6 -3 10 0 10 9 0 8 6 16 13 19 6 2 9 7 6 11 -4 4 -10 2 -14 -3z"/>
<path d="M4000 1961 c0 -10 24 -21 43 -21 7 0 3 7 -7 15 -22 17 -36 19 -36 6z"/>
<path d="M3104 1945 c-10 -8 -14 -15 -8 -15 5 0 19 7 30 15 10 8 14 15 8 15
-5 0 -19 -7 -30 -15z"/>
<path d="M7053 1953 c-7 -2 -13 -8 -13 -13 0 -10 38 -1 46 11 6 10 -13 11 -33
2z"/>
<path d="M7890 1945 c14 -7 27 -11 30 -9 6 7 -22 24 -40 23 -9 0 -5 -6 10 -14z"/>
<path d="M4080 1912 c0 -10 21 -32 32 -32 16 0 8 19 -12 30 -11 6 -20 7 -20 2z"/>
<path d="M6965 1909 c-11 -17 0 -20 21 -4 17 13 17 14 2 15 -9 0 -20 -5 -23
-11z"/>
<path d="M7960 1912 c0 -10 22 -32 32 -32 15 0 8 15 -12 28 -11 7 -20 9 -20 4z"/>
<path d="M3026 1897 c-11 -8 -17 -19 -15 -26 3 -8 13 -3 28 13 26 28 17 35
-13 13z"/>
<path d="M0 1871 c0 -5 7 -12 16 -15 14 -5 15 -4 4 9 -14 17 -20 19 -20 6z"/>
<path d="M6880 1860 c-24 -15 -7 -19 20 -5 15 8 19 14 10 14 -8 1 -22 -3 -30
-9z"/>
<path d="M2952 1844 c-25 -17 -29 -34 -9 -34 18 0 51 36 39 44 -5 3 -18 -2
-30 -10z"/>
<path d="M4157 1854 c-4 -4 1 -13 11 -20 15 -12 15 -15 2 -23 -12 -8 -10 -10
8 -8 12 0 22 6 22 13 0 15 -35 46 -43 38z"/>
<path d="M8048 1838 c12 -12 25 -18 29 -14 4 4 -1 14 -11 22 -31 22 -43 17
-18 -8z"/>
<path d="M30 1831 c-8 -15 -8 -21 -1 -17 10 6 15 -5 12 -26 -1 -10 33 -2 36 9
2 5 -5 21 -15 33 l-19 24 -13 -23z"/>
<path d="M7573 1824 c-20 -20 -24 -31 -19 -57 12 -62 84 -89 126 -47 33 33 30
75 -6 108 -33 29 -69 28 -101 -4z"/>
<path d="M4225 1820 c3 -5 8 -10 11 -10 2 0 4 5 4 10 0 6 -5 10 -11 10 -5 0
-7 -4 -4 -10z"/>
<path d="M6688 1823 c7 -3 16 -2 19 1 4 3 -2 6 -13 5 -11 0 -14 -3 -6 -6z"/>
<path d="M6815 1820 c-4 -6 -10 -8 -15 -5 -4 3 -10 -2 -14 -10 -3 -10 1 -15
13 -15 22 0 46 25 32 34 -5 4 -12 2 -16 -4z"/>
<path d="M10751 1808 c-17 -27 -9 -33 13 -9 10 10 13 21 9 24 -5 3 -15 -3 -22
-15z"/>
<path d="M170 1806 c0 -2 7 -6 15 -10 8 -3 15 -1 15 4 0 6 -7 10 -15 10 -8 0
-15 -2 -15 -4z"/>
<path d="M2878 1786 c-16 -12 -25 -46 -13 -46 3 0 16 9 27 20 26 24 13 46 -14
26z"/>
<path d="M4225 1790 c-4 -6 0 -19 9 -29 9 -10 14 -21 11 -24 -3 -4 3 0 12 8
16 14 16 16 -4 36 -14 15 -23 18 -28 9z"/>
<path d="M6721 1760 c-20 -17 -21 -21 -7 -26 18 -7 59 23 50 37 -8 13 -16 11
-43 -11z"/>
<path d="M100 1749 c12 -22 37 -35 47 -25 9 8 -27 46 -44 46 -11 0 -11 -4 -3
-21z"/>
<path d="M4400 1764 c0 -6 7 -19 16 -30 14 -18 14 -18 3 6 -14 31 -19 36 -19
24z"/>
<path d="M6 1735 c4 -8 8 -15 10 -15 2 0 4 7 4 15 0 8 -4 15 -10 15 -5 0 -7
-7 -4 -15z"/>
<path d="M70 1746 c0 -2 7 -9 15 -16 13 -11 14 -10 9 4 -5 14 -24 23 -24 12z"/>
<path d="M10685 1730 c-15 -17 -16 -20 -3 -20 19 0 42 26 30 34 -5 3 -17 -3
-27 -14z"/>
<path d="M328 1723 c7 -3 16 -2 19 1 4 3 -2 6 -13 5 -11 0 -14 -3 -6 -6z"/>
<path d="M2796 1711 c-12 -13 -14 -21 -6 -26 11 -7 50 21 50 37 0 15 -27 8
-44 -11z"/>
<path d="M4293 1702 c1 -20 7 -28 19 -27 28 2 32 14 13 35 -25 28 -35 25 -32
-8z"/>
<path d="M6653 1707 c-25 -11 -29 -22 -12 -33 6 -3 20 3 31 14 23 23 13 34
-19 19z"/>
<path d="M170 1694 c0 -16 23 -44 35 -44 20 0 19 13 -3 33 -19 17 -32 22 -32
11z"/>
<path d="M10620 1670 c-28 -28 -16 -45 15 -23 27 20 30 29 15 38 -5 3 -19 -4
-30 -15z"/>
<path d="M2730 1645 c-19 -23 -8 -37 18 -20 12 9 22 20 22 26 0 14 -26 11 -40
-6z"/>
<path d="M3896 1643 c-6 -14 -5 -15 5 -6 7 7 10 15 7 18 -3 3 -9 -2 -12 -12z"/>
<path d="M4350 1646 c0 -7 7 -19 15 -26 12 -10 13 -16 4 -26 -8 -10 -8 -14 0
-14 6 0 11 5 11 10 0 6 9 10 20 10 12 0 20 7 20 18 0 12 -3 14 -8 4 -6 -9 -12
-5 -22 13 -14 27 -40 34 -40 11z"/>
<path d="M6563 1640 c0 -14 7 -34 14 -45 13 -19 13 -19 13 1 0 11 5 25 11 31
16 16 1 37 -16 23 -10 -8 -14 -7 -18 2 -3 7 -5 2 -4 -12z"/>
<path d="M244 1627 c-4 -12 0 -23 12 -32 20 -14 38 -10 28 7 -4 6 0 15 7 20
11 7 9 8 -5 4 -11 -4 -23 -1 -27 6 -6 9 -10 8 -15 -5z"/>
<path d="M8106 1627 c3 -10 9 -15 12 -12 3 3 0 11 -7 18 -10 9 -11 8 -5 -6z"/>
<path d="M10551 1594 c-20 -23 1 -40 23 -19 9 9 16 21 16 26 0 14 -23 10 -39
-7z"/>
<path d="M2668 1586 c-10 -7 -18 -18 -18 -25 0 -16 25 -14 40 4 7 8 17 12 24
8 6 -4 5 1 -3 10 -16 20 -21 20 -43 3z"/>
<path d="M10120 1590 c-20 -6 -21 -8 -5 -8 11 0 34 4 50 8 27 7 27 8 5 8 -14
0 -36 -4 -50 -8z"/>
<path d="M6502 1578 c-14 -14 -16 -38 -3 -38 5 0 14 7 21 15 7 8 16 12 21 9 5
-3 6 2 3 10 -7 19 -25 21 -42 4z"/>
<path d="M7686 1583 c5 -5 12 -12 16 -18 4 -6 8 -2 8 8 0 9 -7 17 -17 17 -9 0
-12 -3 -7 -7z"/>
<path d="M7826 1575 c-3 -8 -1 -15 4 -15 6 0 10 7 10 15 0 8 -2 15 -4 15 -2 0
-6 -7 -10 -15z"/>
<path d="M4420 1559 c12 -22 37 -35 47 -25 9 8 -27 46 -44 46 -11 0 -11 -4 -3
-21z"/>
<path d="M6209 1563 c-13 -16 -12 -17 4 -4 16 13 21 21 13 21 -2 0 -10 -8 -17
-17z"/>
<path d="M10042 1553 l-27 -24 29 18 c16 10 40 16 53 15 31 -5 29 4 -3 11 -18
3 -34 -3 -52 -20z"/>
<path d="M305 1561 c-8 -7 27 -41 42 -41 7 0 13 7 13 16 0 9 5 12 12 8 7 -4 8
-3 4 4 -4 6 -14 8 -23 5 -9 -4 -14 -2 -10 3 5 10 -30 14 -38 5z"/>
<path d="M10491 1529 c-22 -24 -20 -42 4 -33 15 6 31 42 22 50 -3 3 -14 -5
-26 -17z"/>
<path d="M2598 1519 c-22 -12 -23 -35 -3 -43 8 -3 14 0 12 7 -1 7 3 11 8 10 6
-1 12 7 12 18 2 21 -4 23 -29 8z"/>
<path d="M6427 1512 c-21 -22 -21 -32 -4 -32 14 0 47 31 47 43 0 14 -27 7 -43
-11z"/>
<path d="M382 1485 c6 -13 19 -27 30 -31 10 -3 16 -10 13 -15 -4 -5 -1 -9 5
-9 17 0 2 42 -22 63 -29 24 -39 21 -26 -8z"/>
<path d="M2540 1506 c0 -2 7 -7 16 -10 8 -3 12 -2 9 4 -6 10 -25 14 -25 6z"/>
<path d="M4482 1494 c4 -20 34 -41 44 -31 8 8 -24 47 -38 47 -5 0 -8 -7 -6
-16z"/>
<path d="M8091 1474 c0 -11 3 -14 6 -6 3 7 2 16 -1 19 -3 4 -6 -2 -5 -13z"/>
<path d="M10415 1458 c-9 -14 -11 -24 -5 -26 14 -5 40 17 40 34 0 21 -17 17
-35 -8z"/>
<path d="M460 1459 c0 -5 5 -7 10 -4 6 3 10 1 10 -4 0 -6 -7 -11 -15 -11 -22
0 -18 -16 9 -34 32 -20 40 -7 20 33 -15 30 -34 42 -34 20z"/>
<path d="M2522 1448 c-14 -14 -16 -38 -4 -38 10 0 42 33 42 43 0 11 -25 8 -38
-5z"/>
<path d="M6352 1444 c-19 -21 -6 -36 18 -22 11 7 22 18 24 25 7 18 -26 16 -42
-3z"/>
<path d="M8327 1449 c7 -7 15 -10 18 -7 3 3 -2 9 -12 12 -14 6 -15 5 -6 -5z"/>
<path d="M8436 1442 c-3 -5 3 -17 14 -27 17 -15 20 -16 20 -3 0 19 -26 42 -34
30z"/>
<path d="M4545 1430 c-10 -16 26 -53 39 -40 7 7 4 17 -11 31 -14 15 -23 18
-28 9z"/>
<path d="M9856 1425 c-3 -8 -1 -15 4 -15 13 0 22 18 11 24 -5 3 -11 -1 -15 -9z"/>
<path d="M8320 1414 c0 -8 5 -12 10 -9 6 4 8 11 5 16 -9 14 -15 11 -15 -7z"/>
<path d="M2545 1409 c-4 -6 -5 -12 -2 -15 2 -3 7 2 10 11 7 17 1 20 -8 4z"/>
<path d="M2457 1383 c-22 -28 -19 -34 10 -27 26 7 36 29 20 42 -8 7 -18 3 -30
-15z"/>
<path d="M10355 1400 c-4 -6 -10 -8 -14 -6 -4 3 -8 -4 -8 -15 -1 -10 4 -19 11
-19 13 0 46 31 46 43 0 11 -28 8 -35 -3z"/>
<path d="M4750 1390 c0 -5 5 -10 11 -10 5 0 7 5 4 10 -3 6 -8 10 -11 10 -2 0
-4 -4 -4 -10z"/>
<path d="M6285 1380 c-21 -23 -12 -39 13 -24 19 12 29 44 14 44 -5 0 -17 -9
-27 -20z"/>
<path d="M530 1369 c0 -17 32 -38 48 -32 10 4 9 9 -4 24 -19 21 -44 25 -44 8z"/>
<path d="M8494 1361 c9 -10 14 -20 11 -22 -2 -3 7 -6 20 -7 31 -2 32 13 3 30
-37 20 -52 19 -34 -1z"/>
<path d="M4600 1352 c0 -5 9 -17 20 -27 16 -15 23 -16 33 -6 9 10 8 15 -7 27
-22 16 -46 19 -46 6z"/>
<path d="M4809 1340 c-13 -11 -18 -19 -11 -20 7 0 22 9 34 20 28 26 8 26 -23
0z"/>
<path d="M10275 1330 c-21 -23 -12 -39 13 -24 19 12 29 44 14 44 -5 0 -17 -9
-27 -20z"/>
<path d="M141 1335 c1 -19 18 -51 18 -35 0 8 -4 22 -9 30 -5 8 -9 11 -9 5z"/>
<path d="M515 1330 c-3 -6 1 -7 9 -4 18 7 21 14 7 14 -6 0 -13 -4 -16 -10z"/>
<path d="M2251 1338 c2 -2 18 -14 34 -28 l30 -25 -24 28 c-14 15 -29 27 -34
27 -6 0 -8 -1 -6 -2z"/>
<path d="M2410 1333 c-24 -9 -50 -35 -44 -44 7 -12 41 7 54 31 6 11 9 20 8 19
-2 0 -10 -3 -18 -6z"/>
<path d="M6217 1322 c-21 -23 -21 -32 -3 -32 20 0 41 29 29 41 -6 6 -15 3 -26
-9z"/>
<path d="M605 1320 c-3 -5 5 -16 17 -24 27 -20 38 -20 38 -3 0 17 -47 40 -55
27z"/>
<path d="M3151 1304 c0 -11 3 -14 6 -6 3 7 2 16 -1 19 -3 4 -6 -2 -5 -13z"/>
<path d="M8560 1297 c0 -8 9 -22 19 -31 26 -23 39 -2 15 25 -20 22 -34 25 -34
6z"/>
<path d="M2488 1293 c7 -3 16 -2 19 1 4 3 -2 6 -13 5 -11 0 -14 -3 -6 -6z"/>
<path d="M4677 1293 c-11 -10 -8 -20 9 -37 19 -20 34 -21 34 -3 0 18 -34 49
-43 40z"/>
<path d="M550 1281 c0 -6 4 -13 10 -16 6 -3 7 1 4 9 -7 18 -14 21 -14 7z"/>
<path d="M2118 1283 c7 -3 16 -2 19 1 4 3 -2 6 -13 5 -11 0 -14 -3 -6 -6z"/>
<path d="M10208 1276 c-18 -13 -25 -36 -10 -36 17 1 45 31 36 39 -5 6 -16 5
-26 -3z"/>
<path d="M2055 1270 c-3 -6 1 -7 9 -4 18 7 21 14 7 14 -6 0 -13 -4 -16 -10z"/>
<path d="M6142 1264 c-12 -8 -22 -19 -22 -25 0 -14 23 -11 46 5 28 22 6 41
-24 20z"/>
<path d="M8770 1270 c0 -6 11 -8 28 -4 39 10 40 14 4 14 -18 0 -32 -5 -32 -10z"/>
<path d="M685 1260 c-7 -12 42 -36 53 -26 4 4 -2 14 -12 22 -23 17 -33 18 -41
4z"/>
<path d="M2300 1255 c-7 -9 -10 -18 -6 -22 9 -10 58 16 51 27 -9 15 -31 12
-45 -5z"/>
<path d="M7138 1263 c12 -2 32 -2 45 0 12 2 2 4 -23 4 -25 0 -35 -2 -22 -4z"/>
<path d="M8629 1268 c-9 -32 -6 -49 11 -58 12 -6 18 -16 14 -23 -4 -7 1 -4 11
5 18 17 18 18 -8 38 -15 12 -25 26 -22 31 4 5 4 9 1 9 -3 0 -6 -1 -7 -2z"/>
<path d="M8658 1253 c7 -3 16 -2 19 1 4 3 -2 6 -13 5 -11 0 -14 -3 -6 -6z"/>
<path d="M2138 1243 c7 -3 16 -2 19 1 4 3 -2 6 -13 5 -11 0 -14 -3 -6 -6z"/>
<path d="M2943 1235 c-3 -9 -3 -18 -1 -21 3 -3 8 4 11 16 6 23 -1 27 -10 5z"/>
<path d="M3112 1230 c0 -14 2 -19 5 -12 2 6 2 18 0 25 -3 6 -5 1 -5 -13z"/>
<path d="M766 1223 c-12 -12 -5 -23 24 -38 25 -13 30 -13 30 -1 0 16 -45 48
-54 39z"/>
<path d="M4737 1223 c-9 -9 22 -43 40 -43 18 0 16 14 -5 33 -21 19 -26 20 -35
10z"/>
<path d="M10121 1214 c-14 -11 -19 -20 -13 -26 12 -12 52 11 52 29 0 17 -11
16 -39 -3z"/>
<path d="M2230 1202 c-14 -10 -27 -20 -28 -25 -2 -4 -19 -14 -38 -22 -38 -16
-44 -30 -15 -38 13 -3 24 5 36 25 13 23 22 28 39 24 15 -4 26 1 35 16 18 28 1
40 -29 20z"/>
<path d="M6072 1205 c-25 -18 -29 -35 -8 -35 17 0 39 26 34 40 -2 6 -12 4 -26
-5z"/>
<path d="M2901 1194 c0 -11 3 -14 6 -6 3 7 2 16 -1 19 -3 4 -6 -2 -5 -13z"/>
<path d="M3310 1185 c0 -14 4 -25 9 -25 4 0 6 11 3 25 -2 14 -6 25 -8 25 -2 0
-4 -11 -4 -25z"/>
<path d="M8705 1170 c-8 -13 12 -40 31 -40 20 0 17 14 -5 34 -13 12 -21 14
-26 6z"/>
<path d="M840 1165 c0 -2 11 -12 25 -21 30 -19 58 -8 30 13 -18 12 -55 18 -55
8z"/>
<path d="M10040 1155 c-7 -9 -10 -19 -6 -22 8 -9 38 9 44 25 5 17 -23 15 -38
-3z"/>
<path d="M2850 1151 c0 -6 5 -13 10 -16 6 -3 10 1 10 9 0 9 -4 16 -10 16 -5 0
-10 -4 -10 -9z"/>
<path d="M4810 1150 c0 -11 33 -30 51 -30 8 0 5 7 -6 20 -19 21 -45 27 -45 10z"/>
<path d="M5993 1148 c-13 -6 -23 -20 -23 -30 0 -17 2 -17 30 3 16 12 27 26 24
31 -3 4 -6 8 -7 7 -1 0 -12 -5 -24 -11z"/>
<path d="M948 1129 c-28 -16 -21 -26 25 -37 l42 -11 -27 24 c-24 20 -25 24
-10 28 12 3 13 5 2 6 -8 0 -23 -4 -32 -10z"/>
<path d="M2821 1124 c0 -11 3 -14 6 -6 3 7 2 16 -1 19 -3 4 -6 -2 -5 -13z"/>
<path d="M3027 1127 c-11 -29 -9 -43 4 -30 6 6 9 19 7 29 -3 18 -4 18 -11 1z"/>
<path d="M5923 1114 c4 -7 -2 -14 -13 -17 -11 -3 -20 -12 -20 -21 0 -21 13
-20 40 2 21 17 21 19 4 32 -10 8 -15 10 -11 4z"/>
<path d="M8775 1110 c-4 -6 4 -19 17 -30 30 -24 49 -8 23 20 -20 22 -31 25
-40 10z"/>
<path d="M9960 1105 c-7 -9 -10 -18 -7 -21 7 -8 47 14 47 26 0 15 -26 12 -40
-5z"/>
<path d="M2055 1097 c-28 -21 0 -32 30 -13 14 9 25 19 25 21 0 10 -37 4 -55
-8z"/>
<path d="M4890 1097 c0 -18 40 -41 52 -29 6 6 1 15 -13 26 -28 19 -39 20 -39
3z"/>
<path d="M5990 1100 c0 -5 7 -7 15 -4 8 4 15 8 15 10 0 2 -7 4 -15 4 -8 0 -15
-4 -15 -10z"/>
<path d="M1020 1076 c0 -12 28 -25 53 -26 18 0 5 28 -15 34 -33 8 -38 8 -38
-8z"/>
<path d="M2980 1070 c0 -5 5 -10 10 -10 6 0 10 5 10 10 0 6 -4 10 -10 10 -5 0
-10 -4 -10 -10z"/>
<path d="M1964 1056 c-10 -8 -16 -17 -12 -21 9 -10 61 9 66 23 5 17 -30 15
-54 -2z"/>
<path d="M9873 1063 c-12 -4 -19 -33 -8 -33 12 0 55 24 55 32 0 9 -27 10 -47
1z"/>
<path d="M1115 1050 c3 -4 -1 -11 -7 -13 -8 -3 -6 -6 5 -6 10 -1 16 -5 13 -9
-3 -5 8 -6 25 -4 16 2 29 8 29 13 0 5 -1 9 -3 9 -1 0 -17 4 -35 9 -18 6 -30 6
-27 1z"/>
<path d="M2810 1050 c0 -5 5 -10 10 -10 6 0 10 5 10 10 0 6 -4 10 -10 10 -5 0
-10 -4 -10 -10z"/>
<path d="M4974 1049 c-3 -6 0 -15 7 -20 16 -10 49 -12 49 -3 0 8 -32 33 -42
34 -4 0 -10 -5 -14 -11z"/>
<path d="M5823 1048 c-13 -6 -23 -15 -23 -21 0 -5 10 -7 23 -3 12 3 25 6 30 6
4 0 7 7 7 15 0 17 -6 18 -37 3z"/>
<path d="M8850 1051 c0 -6 10 -17 22 -25 30 -21 52 -2 24 20 -23 16 -46 19
-46 5z"/>
<path d="M2690 1040 c0 -5 5 -10 10 -10 6 0 10 5 10 10 0 6 -4 10 -10 10 -5 0
-10 -4 -10 -10z"/>
<path d="M1888 1033 c-10 -2 -18 -11 -18 -19 0 -11 7 -13 28 -8 34 8 36 10 27
23 -6 11 -9 12 -37 4z"/>
<path d="M2940 1030 c0 -5 5 -10 10 -10 6 0 10 5 10 10 0 6 -4 10 -10 10 -5 0
-10 -4 -10 -10z"/>
<path d="M9771 1011 c10 -29 11 -30 35 -15 30 20 31 38 2 31 -12 -4 -28 -1
-35 5 -10 8 -11 4 -2 -21z"/>
<path d="M1207 1023 c-16 -15 -5 -28 22 -28 41 0 49 12 17 25 -32 12 -31 12
-39 3z"/>
<path d="M5057 1012 c-9 -13 30 -42 47 -36 21 8 26 30 7 30 -9 1 -23 4 -32 8
-10 4 -19 3 -22 -2z"/>
<path d="M5726 1005 c-11 -8 -17 -18 -13 -21 11 -11 57 6 57 21 0 19 -19 19
-44 0z"/>
<path d="M8940 1010 c0 -6 0 -13 0 -17 0 -5 12 -11 25 -15 34 -9 33 15 0 30
-15 7 -25 8 -25 2z"/>
<path d="M1313 1002 c-12 -2 -26 -9 -31 -15 -8 -9 1 -12 34 -13 24 -1 44 2 44
6 0 14 -25 26 -47 22z"/>
<path d="M1786 999 c-14 -9 -15 -13 -6 -19 16 -10 62 9 54 21 -7 12 -25 11
-48 -2z"/>
<path d="M6419 992 c11 -8 11 -10 0 -14 -10 -3 -9 -6 3 -10 11 -5 15 -2 14 10
-2 9 -9 18 -17 20 -12 3 -12 2 0 -6z"/>
<path d="M9007 983 c3 -7 9 -13 15 -13 5 0 7 -4 4 -9 -8 -12 44 -25 55 -14 5
5 -11 17 -35 28 -29 14 -42 16 -39 8z"/>
<path d="M9664 979 c-19 -9 -45 -20 -59 -23 -15 -4 -23 -11 -19 -17 9 -16 57
-1 76 24 15 20 17 20 23 5 6 -16 9 -16 37 -2 16 9 27 18 24 22 -13 12 -49 8
-82 -9z"/>
<path d="M1392 978 c6 -16 33 -22 56 -13 15 6 15 8 -3 15 -31 13 -57 12 -53
-2z"/>
<path d="M1680 975 c0 -16 12 -18 47 -9 31 8 19 24 -18 24 -19 0 -29 -5 -29
-15z"/>
<path d="M2612 960 c0 -19 2 -27 5 -17 2 9 2 25 0 35 -3 9 -5 1 -5 -18z"/>
<path d="M2695 980 c3 -5 8 -10 11 -10 2 0 4 5 4 10 0 6 -5 10 -11 10 -5 0 -7
-4 -4 -10z"/>
<path d="M5155 979 c-4 -6 -5 -11 -4 -12 2 -1 14 -8 26 -14 26 -15 41 0 23 22
-15 18 -36 19 -45 4z"/>
<path d="M5635 976 c-20 -8 -25 -15 -17 -20 19 -11 62 2 62 19 0 18 -6 18 -45
1z"/>
<path d="M1490 971 c0 -11 30 -19 48 -14 23 8 12 23 -18 23 -16 0 -30 -4 -30
-9z"/>
<path d="M1585 970 c-4 -6 8 -10 30 -10 22 0 34 4 30 10 -3 6 -17 10 -30 10
-13 0 -27 -4 -30 -10z"/>
<path d="M5240 955 c-9 -10 -4 -15 21 -20 18 -4 35 -3 42 4 10 10 9 11 -37 25
-8 3 -20 -1 -26 -9z"/>
<path d="M5470 960 c0 -5 -9 -10 -20 -10 -13 0 -18 -5 -14 -15 7 -16 49 -21
58 -6 8 12 -3 41 -15 41 -5 0 -9 -4 -9 -10z"/>
<path d="M5363 952 c-12 -2 -26 -9 -31 -15 -8 -9 0 -12 29 -14 27 -1 39 3 39
12 0 18 -10 22 -37 17z"/>
<path d="M5522 946 c8 -7 26 -13 41 -13 16 0 27 5 27 13 0 10 -13 14 -41 14
-34 0 -38 -2 -27 -14z"/>
<path d="M6581 944 c0 -11 3 -14 6 -6 3 7 2 16 -1 19 -3 4 -6 -2 -5 -13z"/>
<path d="M9127 953 c-17 -17 -5 -33 24 -33 24 0 30 3 25 16 -3 9 -6 19 -6 22
0 4 -5 0 -10 -8 -6 -10 -10 -11 -10 -2 0 13 -13 16 -23 5z"/>
<path d="M6600 941 c0 -6 4 -13 10 -16 6 -3 7 1 4 9 -7 18 -14 21 -14 7z"/>
<path d="M3571 924 c0 -11 3 -14 6 -6 3 7 2 16 -1 19 -3 4 -6 -2 -5 -13z"/>
<path d="M9495 931 c-3 -6 4 -15 15 -21 13 -7 20 -7 20 0 0 5 7 10 15 10 8 0
15 5 15 10 0 13 -57 13 -65 1z"/>
<path d="M9200 922 c0 -15 79 -42 86 -30 4 6 2 8 -3 5 -6 -4 -13 2 -16 13 -4
15 -14 20 -36 20 -17 0 -31 -4 -31 -8z"/>
<path d="M9418 923 c-31 -8 -19 -24 15 -21 17 2 31 8 30 13 -2 12 -21 15 -45
8z"/>
<path d="M653 880 c0 -25 2 -35 4 -22 2 12 2 32 0 45 -2 12 -4 2 -4 -23z"/>
<path d="M9310 912 c0 -4 10 -13 21 -21 18 -11 23 -11 30 1 15 22 10 28 -21
28 -16 0 -30 -3 -30 -8z"/>
<path d="M6455 900 c-3 -5 -1 -10 4 -10 6 0 11 5 11 10 0 6 -2 10 -4 10 -3 0
-8 -4 -11 -10z"/>
<path d="M2730 889 c0 -5 5 -7 10 -4 6 3 10 8 10 11 0 2 -4 4 -10 4 -5 0 -10
-5 -10 -11z"/>
<path d="M3520 866 c0 -8 5 -18 10 -21 6 -3 10 1 10 9 0 8 -4 18 -10 21 -5 3
-10 -1 -10 -9z"/>
<path d="M8676 843 c-6 -14 -5 -15 5 -6 7 7 10 15 7 18 -3 3 -9 -2 -12 -12z"/>
<path d="M6534 820 c0 -13 4 -16 10 -10 7 7 7 13 0 20 -6 6 -10 3 -10 -10z"/>
<path d="M6658 827 c7 -8 8 -18 4 -22 -4 -5 -1 -5 6 -1 17 10 15 23 -4 30 -13
5 -14 4 -6 -7z"/>
<path d="M7480 826 c7 -7 13 -7 20 0 6 6 3 10 -10 10 -13 0 -16 -4 -10 -10z"/>
<path d="M9400 836 c0 -3 9 -10 20 -16 11 -6 20 -8 20 -6 0 3 -9 10 -20 16
-11 6 -20 8 -20 6z"/>
<path d="M9900 827 c0 -9 4 -18 9 -21 5 -4 8 1 7 9 -3 21 -16 31 -16 12z"/>
<path d="M6898 811 c12 -12 27 -21 33 -19 5 2 -5 12 -23 22 l-33 19 23 -22z"/>
<path d="M6620 801 c0 -29 15 -33 16 -5 1 13 -2 24 -7 24 -5 0 -9 -9 -9 -19z"/>
<path d="M6856 781 c-4 -5 -2 -12 3 -15 5 -4 12 -2 15 3 4 5 2 12 -3 15 -5 4
-12 2 -15 -3z"/>
<path d="M7215 780 c3 -5 8 -10 11 -10 2 0 4 5 4 10 0 6 -5 10 -11 10 -5 0 -7
-4 -4 -10z"/>
<path d="M9149 763 c-13 -16 -12 -17 4 -4 9 7 17 15 17 17 0 8 -8 3 -21 -13z"/>
<path d="M9650 769 c0 -5 5 -7 10 -4 6 3 10 8 10 11 0 2 -4 4 -10 4 -5 0 -10
-5 -10 -11z"/>
<path d="M6646 753 c-6 -14 -5 -15 5 -6 7 7 10 15 7 18 -3 3 -9 -2 -12 -12z"/>
<path d="M8721 765 c0 -5 3 -16 8 -23 7 -11 9 -10 14 3 4 9 3 14 -2 10 -5 -3
-12 1 -14 7 -3 7 -6 9 -6 3z"/>
<path d="M6364 749 c-3 -5 1 -9 10 -9 8 0 16 -5 18 -12 3 -8 6 -6 10 4 7 18
-28 33 -38 17z"/>
<path d="M6736 747 c3 -10 9 -15 12 -12 3 3 0 11 -7 18 -10 9 -11 8 -5 -6z"/>
<path d="M9955 750 c-3 -6 1 -7 9 -4 18 7 21 14 7 14 -6 0 -13 -4 -16 -10z"/>
<path d="M9189 733 c-13 -16 -12 -17 4 -4 16 13 21 21 13 21 -2 0 -10 -8 -17
-17z"/>
<path d="M9574 728 l-19 -23 23 19 c12 11 22 21 22 23 0 8 -8 2 -26 -19z"/>
<path d="M2651 724 c0 -11 3 -14 6 -6 3 7 2 16 -1 19 -3 4 -6 -2 -5 -13z"/>
<path d="M7409 723 c-13 -16 -12 -17 4 -4 16 13 21 21 13 21 -2 0 -10 -8 -17
-17z"/>
<path d="M2945 720 c3 -5 8 -10 11 -10 2 0 4 5 4 10 0 6 -5 10 -11 10 -5 0 -7
-4 -4 -10z"/>
<path d="M9715 719 c-4 -6 -5 -12 -2 -15 2 -3 7 2 10 11 7 17 1 20 -8 4z"/>
<path d="M2605 700 c-3 -5 -1 -10 4 -10 6 0 11 5 11 10 0 6 -2 10 -4 10 -3 0
-8 -4 -11 -10z"/>
<path d="M6240 700 c0 -5 5 -10 10 -10 6 0 10 5 10 10 0 6 -4 10 -10 10 -5 0
-10 -4 -10 -10z"/>
<path d="M6846 693 c-4 -9 -4 -18 -1 -21 3 -3 5 1 5 9 1 10 5 8 15 -5 8 -11
17 -17 21 -14 3 4 -3 15 -14 26 -18 18 -21 18 -26 5z"/>
<path d="M2560 679 c0 -5 5 -7 10 -4 6 3 10 8 10 11 0 2 -4 4 -10 4 -5 0 -10
-5 -10 -11z"/>
<path d="M3031 664 c0 -11 3 -14 6 -6 3 7 2 16 -1 19 -3 4 -6 -2 -5 -13z"/>
<path d="M3758 668 c5 -5 16 -8 23 -6 8 3 3 7 -10 11 -17 4 -21 3 -13 -5z"/>
<path d="M6306 658 c10 -14 21 -24 23 -22 3 3 -6 15 -18 27 l-24 22 19 -27z"/>
<path d="M6480 671 c0 -7 -5 -9 -12 -5 -7 5 -8 3 -3 -5 5 -9 10 -10 18 -2 6 6
8 14 4 18 -4 3 -7 1 -7 -6z"/>
<path d="M9576 662 c-3 -6 1 -15 8 -21 8 -7 17 -8 20 -3 3 6 -1 15 -8 21 -8 7
-17 8 -20 3z"/>
<path d="M10020 656 c0 -2 7 -7 16 -10 8 -3 12 -2 9 4 -6 10 -25 14 -25 6z"/>
<path d="M2951 634 c0 -11 3 -14 6 -6 3 7 2 16 -1 19 -3 4 -6 -2 -5 -13z"/>
<path d="M6340 620 c0 -5 5 -10 11 -10 5 0 7 -5 3 -12 -4 -7 -3 -8 5 -4 9 6 9
11 0 22 -14 17 -19 18 -19 4z"/>
<path d="M7760 620 c0 -5 7 -7 15 -4 8 4 15 8 15 10 0 2 -7 4 -15 4 -8 0 -15
-4 -15 -10z"/>
<path d="M9537 619 c7 -7 15 -10 18 -7 3 3 -2 9 -12 12 -14 6 -15 5 -6 -5z"/>
<path d="M10050 626 c0 -2 7 -7 16 -10 8 -3 12 -2 9 4 -6 10 -25 14 -25 6z"/>
<path d="M9040 616 c0 -2 7 -7 16 -10 8 -3 12 -2 9 4 -6 10 -25 14 -25 6z"/>
<path d="M9650 610 c0 -5 5 -10 11 -10 5 0 7 5 4 10 -3 6 -8 10 -11 10 -2 0
-4 -4 -4 -10z"/>
<path d="M9862 608 c2 -6 10 -13 16 -14 7 -1 8 0 2 3 -5 2 -8 9 -4 14 3 5 0 9
-6 9 -7 0 -10 -5 -8 -12z"/>
<path d="M2900 589 c0 -5 5 -7 10 -4 6 3 10 8 10 11 0 2 -4 4 -10 4 -5 0 -10
-5 -10 -11z"/>
<path d="M2576 567 c3 -10 9 -15 12 -12 3 3 0 11 -7 18 -10 9 -11 8 -5 -6z"/>
<path d="M2991 564 c0 -11 3 -14 6 -6 3 7 2 16 -1 19 -3 4 -6 -2 -5 -13z"/>
<path d="M9901 553 c7 -12 15 -20 18 -17 3 2 -3 12 -13 22 -17 16 -18 16 -5
-5z"/>
<path d="M6377 545 c-4 -8 -3 -16 1 -19 4 -3 9 4 9 15 2 23 -3 25 -10 4z"/>
<path d="M840 531 c0 -6 4 -13 10 -16 6 -3 7 1 4 9 -7 18 -14 21 -14 7z"/>
<path d="M2941 533 c0 -5 4 -17 9 -28 8 -18 9 -17 9 8 1 15 -3 27 -9 27 -5 0
-10 -3 -9 -7z"/>
<path d="M3230 530 c0 -5 5 -10 10 -10 6 0 10 5 10 10 0 6 -4 10 -10 10 -5 0
-10 -4 -10 -10z"/>
<path d="M10728 523 c6 -2 18 -2 25 0 6 3 1 5 -13 5 -14 0 -19 -2 -12 -5z"/>
<path d="M2640 481 c0 -5 5 -13 10 -16 6 -3 10 -2 10 4 0 5 -4 13 -10 16 -5 3
-10 2 -10 -4z"/>
<path d="M6390 466 c0 -2 9 -6 20 -9 11 -3 18 -1 14 4 -5 9 -34 13 -34 5z"/>
<path d="M2980 451 c0 -6 4 -13 10 -16 6 -3 7 1 4 9 -7 18 -14 21 -14 7z"/>
<path d="M2650 430 c0 -11 2 -20 4 -20 2 0 6 9 9 20 3 11 1 20 -4 20 -5 0 -9
-9 -9 -20z"/>
<path d="M6448 443 c7 -3 16 -2 19 1 4 3 -2 6 -13 5 -11 0 -14 -3 -6 -6z"/>
<path d="M8094 418 c4 -23 21 -26 41 -7 7 7 4 8 -8 3 -12 -4 -17 -2 -15 6 2 7
-3 15 -10 17 -8 3 -11 -3 -8 -19z"/>
<path d="M10244 428 c-5 -7 -3 -8 6 -3 10 6 12 4 6 -10 -5 -14 -4 -16 7 -7 8
7 16 9 19 6 3 -3 9 1 14 8 4 7 4 10 -1 6 -4 -4 -16 -3 -26 2 -12 7 -20 6 -25
-2z"/>
<path d="M9223 417 c0 -8 6 -14 14 -14 9 0 10 4 2 14 -6 7 -12 13 -14 13 -1 0
-2 -6 -2 -13z"/>
<path d="M10070 419 c0 -5 5 -7 10 -4 6 3 10 8 10 11 0 2 -4 4 -10 4 -5 0 -10
-5 -10 -11z"/>
<path d="M2940 406 c0 -8 5 -18 10 -21 6 -3 10 1 10 9 0 8 -4 18 -10 21 -5 3
-10 -1 -10 -9z"/>
<path d="M2710 390 c14 -11 30 -20 35 -20 6 0 -1 9 -15 20 -14 11 -29 20 -35
20 -5 0 1 -9 15 -20z"/>
<path d="M7525 400 c-3 -5 -3 -10 1 -10 4 0 -1 -10 -12 -22 -19 -23 -19 -23 2
-5 11 9 21 24 21 32 0 18 -3 19 -12 5z"/>
<path d="M9329 387 c6 -8 7 -17 3 -21 -4 -4 0 -6 8 -4 9 2 14 -3 12 -11 -3
-12 0 -12 12 -1 17 13 22 25 7 16 -5 -3 -14 1 -21 9 -11 13 -10 14 4 9 9 -3
16 -2 16 3 0 5 -12 10 -26 11 -21 2 -24 -1 -15 -11z"/>
<path d="M2857 371 c-4 -17 -3 -21 5 -13 5 5 8 16 6 23 -3 8 -7 3 -11 -10z"/>
<path d="M3111 374 c0 -11 3 -14 6 -6 3 7 2 16 -1 19 -3 4 -6 -2 -5 -13z"/>
<path d="M9705 379 c-4 -6 -5 -12 -2 -15 2 -3 7 2 10 11 7 17 1 20 -8 4z"/>
<path d="M485 370 c3 -5 8 -10 11 -10 2 0 4 5 4 10 0 6 -5 10 -11 10 -5 0 -7
-4 -4 -10z"/>
<path d="M2810 371 c0 -6 5 -13 10 -16 6 -3 10 1 10 9 0 9 -4 16 -10 16 -5 0
-10 -4 -10 -9z"/>
<path d="M10365 360 c-3 -6 1 -7 9 -4 18 7 21 14 7 14 -6 0 -13 -4 -16 -10z"/>
<path d="M436 335 c-11 -8 -17 -17 -14 -20 2 -3 13 4 23 15 21 23 18 25 -9 5z"/>
<path d="M9320 340 c0 -5 5 -10 10 -10 6 0 10 5 10 10 0 6 -4 10 -10 10 -5 0
-10 -4 -10 -10z"/>
<path d="M7420 320 c-6 -11 -7 -20 -2 -20 6 0 12 9 15 20 3 11 3 20 1 20 -2 0
-8 -9 -14 -20z"/>
<path d="M7541 324 c0 -11 3 -14 6 -6 3 7 2 16 -1 19 -3 4 -6 -2 -5 -13z"/>
<path d="M10475 330 c-3 -5 3 -7 12 -6 10 2 22 -2 26 -8 6 -7 7 -6 5 3 -5 16
-35 24 -43 11z"/>
<path d="M9770 321 c0 -6 4 -13 10 -16 6 -3 7 1 4 9 -7 18 -14 21 -14 7z"/>
<path d="M3025 311 c-3 -5 -1 -12 5 -16 5 -3 10 1 10 9 0 18 -6 21 -15 7z"/>
<path d="M7657 309 c7 -9 9 -20 5 -25 -4 -4 1 -2 11 5 9 7 17 16 17 19 0 3 -3
2 -7 -1 -3 -4 -13 -1 -22 6 -14 10 -14 10 -4 -4z"/>
<path d="M7814 304 c-18 -14 -18 -15 4 -4 12 6 22 13 22 15 0 8 -5 6 -26 -11z"/>
<path d="M8375 310 c-3 -6 1 -7 9 -4 18 7 21 14 7 14 -6 0 -13 -4 -16 -10z"/>
<path d="M9966 303 c-4 -10 -4 -14 0 -10 4 4 14 1 22 -6 13 -10 14 -9 3 11
-14 27 -17 27 -25 5z"/>
<path d="M7365 300 c-3 -5 -1 -10 4 -10 6 0 11 5 11 10 0 6 -2 10 -4 10 -3 0
-8 -4 -11 -10z"/>
<path d="M7512 297 c-9 -11 -5 -13 17 -13 16 1 33 5 38 10 5 5 3 6 -5 2 -7 -4
-19 -3 -26 3 -10 8 -16 8 -24 -2z"/>
<path d="M8278 303 c6 -2 18 -2 25 0 6 3 1 5 -13 5 -14 0 -19 -2 -12 -5z"/>
<path d="M9060 306 c0 -2 7 -7 16 -10 8 -3 12 -2 9 4 -6 10 -25 14 -25 6z"/>
<path d="M10050 306 c0 -2 7 -7 16 -10 8 -3 12 -2 9 4 -6 10 -25 14 -25 6z"/>
<path d="M10605 299 c-4 -6 -5 -12 -2 -15 2 -3 7 2 10 11 7 17 1 20 -8 4z"/>
<path d="M280 282 c0 -4 -34 -7 -76 -5 -42 1 -74 -1 -71 -4 4 -3 -2 -18 -13
-33 -11 -15 -18 -37 -15 -48 5 -30 34 -70 53 -76 10 -2 83 -4 163 -4 181 1
193 7 195 92 1 30 -1 54 -5 53 -3 0 -16 5 -29 12 -27 14 -103 12 -114 -4 -5
-6 -8 -3 -8 8 0 13 -9 17 -40 17 -22 0 -40 -4 -40 -8z m-46 -25 c15 -11 16
-17 6 -39 -9 -20 -9 -31 0 -48 11 -20 10 -25 -6 -37 -35 -25 -40 -16 -23 46 2
8 -4 17 -14 19 -15 3 -17 -2 -11 -38 l7 -41 -26 12 c-34 15 -51 57 -38 91 17
45 68 62 105 35z m259 -18 c14 -20 17 -35 12 -58 -8 -37 -52 -72 -65 -52 -6
11 -8 11 -12 1 -3 -10 -9 -10 -23 -3 -14 8 -19 23 -20 69 -1 33 1 63 3 67 2 4
22 7 44 5 31 -2 46 -10 61 -29z"/>
<path d="M416 222 c-8 -24 3 -54 18 -49 15 5 14 59 -1 64 -6 2 -14 -5 -17 -15z
m21 -24 c-3 -8 -6 -5 -6 6 -1 11 2 17 5 13 3 -3 4 -12 1 -19z"/>
<path d="M9018 272 c-4 -12 -2 -24 2 -27 13 -8 18 8 10 29 -6 19 -7 19 -12 -2z"/>
<path d="M8576 234 c-3 -9 -2 -22 2 -31 6 -10 9 -5 9 16 0 35 -2 38 -11 15z"/>
<path d="M9706 235 c-9 -26 -7 -32 5 -12 6 10 9 21 6 23 -2 3 -7 -2 -11 -11z"/>
<path d="M8710 221 c0 -7 -5 -9 -12 -5 -7 5 -8 3 -3 -5 5 -9 10 -10 18 -2 6 6
8 14 4 18 -4 3 -7 1 -7 -6z"/>
<path d="M9019 213 c-13 -16 -12 -17 4 -4 9 7 17 15 17 17 0 8 -8 3 -21 -13z"/>
<path d="M9598 223 c6 -2 18 -2 25 0 6 3 1 5 -13 5 -14 0 -19 -2 -12 -5z"/>
<path d="M3170 210 c0 -5 5 -10 10 -10 6 0 10 5 10 10 0 6 -4 10 -10 10 -5 0
-10 -4 -10 -10z"/>
<path d="M9128 193 c7 -3 16 -2 19 1 4 3 -2 6 -13 5 -11 0 -14 -3 -6 -6z"/>
<path d="M3498 163 c7 -3 16 -2 19 1 4 3 -2 6 -13 5 -11 0 -14 -3 -6 -6z"/>
<path d="M6698 163 c7 -3 16 -2 19 1 4 3 -2 6 -13 5 -11 0 -14 -3 -6 -6z"/>
<path d="M4508 143 c7 -3 16 -2 19 1 4 3 -2 6 -13 5 -11 0 -14 -3 -6 -6z"/>
</g>
</svg>
