<svg width="24" height="26" viewBox="0 0 24 26" fill="none" xmlns="http://www.w3.org/2000/svg">
<path d="M12 13C15.5902 13 18.5 10.0902 18.5 6.5C18.5 2.90977 15.5902 0 12 0C8.40977 0 5.5 2.90977 5.5 6.5C5.5 10.0902 8.40977 13 12 13ZM16.55 14.625H15.702C14.5746 15.143 13.3203 15.4375 12 15.4375C10.6797 15.4375 9.43047 15.143 8.29805 14.625H7.45C3.68203 14.625 0.625 17.682 0.625 21.45V23.5625C0.625 24.9082 1.7168 26 3.0625 26H20.9375C22.2832 26 23.375 24.9082 23.375 23.5625V21.45C23.375 17.682 20.318 14.625 16.55 14.625Z" fill="black"/>
</svg>
